<svg id="man" xmlns="http://www.w3.org/2000/svg" width="95.077" height="95.289" viewBox="0 0 95.077 95.289">
  <g id="Group_39" data-name="Group 39" transform="translate(0 0)">
    <g id="Group_38" data-name="Group 38">
      <path id="Path_5" data-name="Path 5" d="M861.66,336.8a1.367,1.367,0,0,0-1.3-.95h-6.687a21.484,21.484,0,0,0-21.4,21.57v9.573a3.2,3.2,0,0,0,3.183,3.209h35.121a1.375,1.375,0,0,0,1.3-1.8Zm44.3-.95h-6.666a1.367,1.367,0,0,0-1.3.95l-10.22,31.6a1.375,1.375,0,0,0,1.3,1.8h35.1a3.2,3.2,0,0,0,3.183-3.209v-9.573A21.484,21.484,0,0,0,905.956,335.849Zm.1-34.48a26.246,26.246,0,1,0-26.246,26.457A26.353,26.353,0,0,0,906.061,301.368Z" transform="translate(-832.277 -274.912)" fill="#c04e97"/>
      <path id="Path_6" data-name="Path 6" d="M884.022,346.345a4.02,4.02,0,0,0-3.9,4.131v22.03a3.9,3.9,0,1,0,7.8,0v-22.03A4.02,4.02,0,0,0,884.022,346.345Z" transform="translate(-836.483 -284.66)" fill="#c04e97"/>
    </g>
  </g>
</svg>
