<svg xmlns="http://www.w3.org/2000/svg" width="96" height="96" viewBox="0 0 96 96">
  <g id="money" transform="translate(-376 -2306)">
    <rect id="Rectangle_8" data-name="Rectangle 8" width="96" height="96" rx="8" transform="translate(376 2306)" fill="#fff"/>
    <g id="Group_37" data-name="Group 37" transform="translate(376 2306.069)">
      <g id="Group_36" data-name="Group 36">
        <g id="Group_35" data-name="Group 35">
          <path id="Path_3" data-name="Path 3" d="M853.78,184.97a6.178,6.178,0,0,0-8.14.356,4.3,4.3,0,0,0,.6,6.394l6.029,5.1a2.306,2.306,0,0,1,0,3.643,3.451,3.451,0,0,1-4.307,0l-5.856-4.952a9.818,9.818,0,0,1-3.637-7.033l.047-12.031c0-2.944-3-5.3-6.549-4.995a5.577,5.577,0,0,0-5.325,5.282v12.374a11.009,11.009,0,0,0,3.365,7.778l13.337,13.347a1.282,1.282,0,0,0,.9.357l24.384.029a1.108,1.108,0,0,0,1.189-1v-6.083a11.193,11.193,0,0,0-4.173-8.52Zm61.967-13.52c-3.554-.3-6.549,2.051-6.549,4.995l.047,12.031a9.823,9.823,0,0,1-3.638,7.033l-5.855,4.952a3.451,3.451,0,0,1-4.307,0,2.3,2.3,0,0,1,0-3.643l6.029-5.1a4.3,4.3,0,0,0,.6-6.394,6.179,6.179,0,0,0-8.141-.356l-11.87,10.039a11.191,11.191,0,0,0-4.172,8.52v6.083a1.107,1.107,0,0,0,1.189,1l24.383-.029a1.283,1.283,0,0,0,.906-.357l13.336-13.347a11,11,0,0,0,3.365-7.778V176.731A5.577,5.577,0,0,0,915.746,171.449Z" transform="translate(-826.642 -133.269)" fill="#c04e97"/>
          <path id="Path_4" data-name="Path 4" d="M870.832,230.3H844.319a1.275,1.275,0,0,0-1.29,1.257v5.026a1.275,1.275,0,0,0,1.29,1.257h26.513a1.275,1.275,0,0,0,1.291-1.257v-5.026A1.275,1.275,0,0,0,870.832,230.3Zm36.485,0H880.8a1.274,1.274,0,0,0-1.29,1.257v5.026a1.274,1.274,0,0,0,1.29,1.257h26.513a1.275,1.275,0,0,0,1.291-1.257v-5.026A1.275,1.275,0,0,0,907.317,230.3Zm-4.9-62.261c0-13.879-11.561-25.131-25.821-25.131s-25.821,11.252-25.821,25.131,11.561,25.131,25.821,25.131S902.418,181.914,902.418,168.036Zm-27.46-4.454,5.965,2.986a8.278,8.278,0,0,1,4.576,8.869,8.146,8.146,0,0,1-5.164,6.34v1.054a3.228,3.228,0,0,1-6.455,0v-.839a10.311,10.311,0,0,1-6.569-5.674,3.109,3.109,0,0,1,1.674-4.133,3.264,3.264,0,0,1,4.246,1.63,3.985,3.985,0,0,0,3.982,2.3l.293-.035a1.886,1.886,0,0,0,1.618-1.637,2.1,2.1,0,0,0-1.158-2.292L872,169.167a8.315,8.315,0,0,1,1.874-15.607v-.885a3.228,3.228,0,0,1,6.455,0v1.552a10.241,10.241,0,0,1,5.263,5.181,3.109,3.109,0,0,1-1.674,4.133,3.26,3.26,0,0,1-4.247-1.629,4.005,4.005,0,0,0-3.979-2.3,1.986,1.986,0,0,0-1.879,1.661A2.057,2.057,0,0,0,874.957,163.581Z" transform="translate(-828.604 -142.905)" fill="#c04e97"/>
        </g>
      </g>
    </g>
  </g>
</svg>
