<svg xmlns="http://www.w3.org/2000/svg" width="96" height="96" viewBox="0 0 96 96">
  <g id="note" transform="translate(-881 -1776)">
    <rect id="Rectangle_8" data-name="Rectangle 8" width="96" height="95.604" rx="8" transform="translate(881 1776)" fill="#fff"/>
    <g id="Group_43" data-name="Group 43" transform="translate(900.798 1776)">
      <g id="Group_42" data-name="Group 42">
        <g id="Group_41" data-name="Group 41">
          <path id="Path_7" data-name="Path 7" d="M1066.772,77.911h-6.406a1.09,1.09,0,0,0-1.038,1.135v6.809a1.09,1.09,0,0,1-1.038,1.135H1023.16a1.09,1.09,0,0,1-1.038-1.135V79.046a1.09,1.09,0,0,0-1.038-1.135h-6.21a4.359,4.359,0,0,0-4.152,4.539v68.093a4.358,4.358,0,0,0,4.152,4.539h51.9a4.359,4.359,0,0,0,4.152-4.539V82.45A4.359,4.359,0,0,0,1066.772,77.911Zm-30.612,22.45h20.987a2.849,2.849,0,0,1,0,5.675H1036.16a2.849,2.849,0,0,1,0-5.675Zm0,11.349h20.987a2.848,2.848,0,0,1,0,5.674H1036.16a2.848,2.848,0,0,1,0-5.674Zm-11.417,17.023h-.811a2.848,2.848,0,0,1,0-5.674h.811a2.848,2.848,0,0,1,0,5.674Zm0-11.349h-.811a2.848,2.848,0,0,1,0-5.674h.811a2.848,2.848,0,0,1,0,5.674Zm0-11.349h-.811a2.849,2.849,0,0,1,0-5.675h.811a2.849,2.849,0,0,1,0,5.675Zm32.688,22.7H1036.16a2.848,2.848,0,0,1,0-5.674h21.271a2.848,2.848,0,0,1,0,5.674Z" transform="translate(-1010.723 -59.082)" fill="#c04e97"/>
          <path id="Path_8" data-name="Path 8" d="M1060.171,66.421a4.608,4.608,0,0,1-3.2-4.333,6.16,6.16,0,0,0-6.16-6.252h-.262a6.021,6.021,0,0,0-6.164,5.981,4.667,4.667,0,0,1-3.179,4.6c-4,1.35-6.907,2.589-6.907,7.037v3.775a1.258,1.258,0,0,0,1.259,1.258h30.222a1.258,1.258,0,0,0,1.259-1.258V73.453C1067.041,69.01,1064.157,67.769,1060.171,66.421Z" transform="translate(-1020.578 -55.836)" fill="#c04e97"/>
        </g>
      </g>
    </g>
  </g>
</svg>
