<svg xmlns="http://www.w3.org/2000/svg" width="96" height="96" viewBox="0 0 96 96">
  <g id="pen" transform="translate(-881 -2303)">
    <g id="Group_191" data-name="Group 191">
      <rect id="Rectangle_8" data-name="Rectangle 8" width="96" height="96" rx="8" transform="translate(881 2303)" fill="#fff"/>
      <g id="Group_45" data-name="Group 45" transform="translate(886 2312)">
        <g id="Group_44" data-name="Group 44">
          <path id="Path_9" data-name="Path 9" d="M1145.957,203.366a5.741,5.741,0,0,0-5.74,5.741V257.9a5.74,5.74,0,0,0,11.48,0V209.107A5.741,5.741,0,0,0,1145.957,203.366Z" transform="translate(-1140.217 -185.535)" fill="#c04e97"/>
          <path id="Path_10" data-name="Path 10" d="M1217.918,184.5h-59.8c-2.359,0-4.271,2.411-4.271,5.387V262.6h59.8c4.719,0,8.544-4.823,8.544-10.772V189.884C1222.189,186.908,1220.276,184.5,1217.918,184.5Zm-25.63,15.621a2.4,2.4,0,0,1,2.136-2.6h12.815a2.4,2.4,0,0,1,2.135,2.6v15.62a2.4,2.4,0,0,1-2.135,2.6h-12.815a2.4,2.4,0,0,1-2.136-2.6Zm-24.561.651h12.815a3.318,3.318,0,0,1,0,6.508h-12.815a3.318,3.318,0,0,1,0-6.508Zm0,13.017h12.815a3.318,3.318,0,0,1,0,6.508h-12.815a3.318,3.318,0,0,1,0-6.508Zm40.58,32.543h-40.58a3.318,3.318,0,0,1,0-6.508h40.58a3.318,3.318,0,0,1,0,6.508Zm0-13.017h-40.58a3.318,3.318,0,0,1,0-6.508h40.58a3.318,3.318,0,0,1,0,6.508Z" transform="translate(-1135.189 -184.497)" fill="#c04e97"/>
        </g>
      </g>
    </g>
  </g>
</svg>
