<svg xmlns="http://www.w3.org/2000/svg" width="568" height="433.997" viewBox="0 0 568 433.997">
  <g id="photo" transform="translate(-832.54 -508.985)">
    <path id="Path_26" data-name="Path 26" d="M998.257,615.7l16.978-2.993-3.5-19.843-17.417,3.071a36.636,36.636,0,0,0-2.664-4.376l11.08-13.2L987.3,565.4l-11.36,13.539a36.255,36.255,0,0,0-4.861-1.644V560.073H950.931v17.673a36.386,36.386,0,0,0-4.778,1.867l-11.072-13.2-15.435,12.952,11.37,13.549a36.626,36.626,0,0,0-2.466,4.492l-16.968-2.993-3.5,19.843,17.421,3.072a36.27,36.27,0,0,0,.995,5.025l-14.922,8.614,10.074,17.45,15.32-8.844a36.762,36.762,0,0,0,4,3.2l-5.895,16.2,18.934,6.891,6.048-16.618c.577.027,1.158.044,1.742.044,1.14,0,2.266-.059,3.38-.162l5.895,16.2L990,658.437l-6.05-16.62a36.832,36.832,0,0,0,3.85-3.38l14.925,8.617L1012.8,629.6l-15.317-8.842A36.485,36.485,0,0,0,998.257,615.7Zm-36.6,23.937a26.666,26.666,0,1,1,26.665-26.666A26.665,26.665,0,0,1,961.658,639.636Z" transform="translate(44.098 29.823)" fill="#ea9bc3"/>
    <g id="Group_74" data-name="Group 74" transform="translate(1154.302 648.519)">
      <g id="Group_71" data-name="Group 71" transform="translate(0 131.864)">
        <path id="Path_27" data-name="Path 27" d="M1139.788,735.828s4.856,5.076,9.124,10.689a65.035,65.035,0,0,0,29.244.755,47.714,47.714,0,0,0-3.091-10.513s4.344,4.541,8.426,9.781c5.13-.648,13.521-1.582,22.793-2.1a43.845,43.845,0,0,0-4.159-8.87s5.038,3.948,9.865,8.611c11.9-.41,24.432.04,32.948,2.707a103.942,103.942,0,0,0-21.354-36.965,191.787,191.787,0,0,1-22.844.858c4.311-1.21,10.445-4.569,15.814-7.848a81.163,81.163,0,0,0-22.9-14.445,199.261,199.261,0,0,1-19.593,4.758,59.513,59.513,0,0,0,10.518-7.9,92.2,92.2,0,0,0-30.449-3.049c-7.14,5.66-14.248,10.245-14.248,10.245a52.749,52.749,0,0,0,5.765-9.435c-13.7,1.81-29.154,6.207-46.558,14.045,0,0,12.4,34.979,43.37,47.237A40.951,40.951,0,0,0,1139.788,735.828Z" transform="translate(-998.701 -679.319)" fill="#ea9bc3"/>
        <path id="Path_28" data-name="Path 28" d="M1272.533,739.379q-14.366-4.649-28.812-9.056-14.437-4.428-28.924-8.679c-19.318-5.66-38.7-11.091-58.174-16.151q-14.605-3.8-29.282-7.26c-9.786-2.292-19.6-4.455-29.449-6.386q-7.385-1.454-14.8-2.692c-4.941-.82-9.891-1.558-14.843-2.163s-9.914-1.074-14.849-1.291c-2.471-.123-4.925-.13-7.365-.086a61.414,61.414,0,0,0-7.163.621l-.04.006a2.713,2.713,0,1,1-.833-5.361l.055-.008a66.106,66.106,0,0,1,7.887-.524c2.592,0,5.174.07,7.73.25,5.117.329,10.177.92,15.206,1.638s10.022,1.574,15,2.505,9.927,1.946,14.86,3.025c9.871,2.149,19.679,4.528,29.45,7.032s19.5,5.15,29.2,7.887c19.4,5.475,38.684,11.314,57.894,17.38q14.406,4.556,28.753,9.285t28.628,9.658a.194.194,0,0,1,.12.247A.2.2,0,0,1,1272.533,739.379Z" transform="translate(-1035.705 -680.349)" fill="#cf70a3"/>
      </g>
      <g id="Group_72" data-name="Group 72" transform="translate(17.736 97.028)">
        <path id="Path_29" data-name="Path 29" d="M1113.52,718.812s-2.463,9.9-4.093,19.732a50.6,50.6,0,0,0,18.894,16.607c.26-6.853.976-13.4,2.642-16.17,0,0,.456,8.891,1.574,18.11a62.426,62.426,0,0,0,8.568,2.8s4.309,1.25,10.546,3.394c-.775-3.571-1.131-6.644-.722-8.538,0,0,1.7,4.252,4.154,9.74,12.155,4.344,29.087,11.31,37.427,18.886a87.763,87.763,0,0,0-2.136-32.106c-10.128-5.187-20.76-9.366-20.76-9.366,3.5-1.465,10.909-.184,18.446,1.845a70.708,70.708,0,0,0-10.445-19.144c-8.953-2.084-21.994-2.7-21.994-2.7,2.512-2.219,10.274-2.9,17.014-3.044-6.949-7.162-16.2-13.517-28.482-18.123-9.441,1.307-18.581,3.258-18.581,3.258,1.844-1.91,6.314-3.861,11.485-5.618-10.814-3.163-23.682-5.076-38.991-5.242,0,0-2,21.346,8.247,40.31C1108.552,726.991,1111.13,720.968,1113.52,718.812Z" transform="translate(-1017.127 -638.049)" fill="#cf70a3"/>
        <path id="Path_30" data-name="Path 30" d="M1209.052,787.433q-9.372-8.721-18.89-17.282-9.5-8.576-19.11-17.033-19.216-16.907-38.9-33.257-9.859-8.148-19.894-16.069c-6.7-5.269-13.46-10.448-20.335-15.461q-5.15-3.763-10.4-7.371c-3.5-2.4-7.04-4.743-10.628-6.983s-7.23-4.377-10.945-6.311c-1.853-.98-3.736-1.866-5.625-2.707a52.3,52.3,0,0,0-5.725-2.089l-.033-.009a2.3,2.3,0,0,1,1.281-4.417l.046.014a56.26,56.26,0,0,1,6.246,2.423c1.991.933,3.95,1.907,5.849,2.961,3.814,2.089,7.49,4.355,11.094,6.709s7.135,4.8,10.622,7.3,6.927,5.052,10.333,7.649c6.813,5.188,13.5,10.53,20.1,15.956s13.134,10.944,19.6,16.522q19.412,16.739,38.248,34.1,9.434,8.661,18.761,17.437t18.532,17.678a.165.165,0,0,1-.228.239Z" transform="translate(-1046.903 -658.353)" fill="#c04e97"/>
      </g>
      <g id="Group_73" data-name="Group 73" transform="translate(45.332)">
        <path id="Path_31" data-name="Path 31" d="M1163.98,714.3s7.855-3.544,16.091-6.191a79.748,79.748,0,0,0,12.808-33.525c-4.882-.683-10-1.134-13.424-.714,0,0,7.027-3.171,14.756-5.754,1.343-6.2,3.689-16.287,6.869-27.23a53.721,53.721,0,0,0-11.962,1.191s6.625-4.217,13.989-7.9c4.384-13.939,10.019-28.248,16.58-37.012a127.49,127.49,0,0,0-51.482,9.618,235.116,235.116,0,0,1-8.33,26.778c.359-5.481-1.023-13.948-2.623-21.5a99.533,99.533,0,0,0-26.057,20.592,244.692,244.692,0,0,1-2.493,24.61c-.6-4.156-2.558-9.808-4.846-15.393a113.1,113.1,0,0,0-15.955,33.982c3.635,10.57,6.039,20.665,6.039,20.665A64.636,64.636,0,0,0,1105.376,686c-3.5,16.588-4.718,36.262-2.754,59.6,0,0,45.529-.07,72.35-30.9A50.381,50.381,0,0,0,1163.98,714.3Z" transform="translate(-1042.52 -597.089)" fill="#ea9bc3"/>
        <path id="Path_32" data-name="Path 32" d="M1227.781,601.951q-11.242,14.724-22.236,29.637-11.013,14.893-21.845,29.92-21.651,30.056-42.429,60.71-10.351,15.347-20.349,30.912c-6.646,10.388-13.155,20.858-19.408,31.464q-4.7,7.949-9.154,16.02c-2.965,5.382-5.841,10.806-8.562,16.291s-5.288,11.029-7.553,16.651c-1.15,2.806-2.16,5.645-3.106,8.486a75.169,75.169,0,0,0-2.2,8.54l-.009.049a3.328,3.328,0,0,1-6.542-1.226l.014-.067a81.476,81.476,0,0,1,2.61-9.338c1.066-3,2.194-5.958,3.445-8.842,2.472-5.786,5.22-11.4,8.1-16.922s5.91-10.952,9.018-16.325,6.3-10.689,9.566-15.958c6.514-10.543,13.269-20.918,20.153-31.2s13.916-20.456,21.042-30.56q21.378-30.311,43.737-59.885,11.149-14.8,22.477-29.474t22.855-29.178a.239.239,0,0,1,.377.295Z" transform="translate(-1064.328 -594.475)" fill="#c04e97"/>
      </g>
    </g>
    <g id="Group_78" data-name="Group 78" transform="translate(832.54 648.519)">
      <g id="Group_75" data-name="Group 75" transform="translate(0 131.864)">
        <path id="Path_33" data-name="Path 33" d="M937.69,735.828s-4.856,5.076-9.122,10.689a65.038,65.038,0,0,1-29.244.755,47.726,47.726,0,0,1,3.09-10.513s-4.343,4.541-8.424,9.781c-5.13-.648-13.521-1.582-22.795-2.1a43.917,43.917,0,0,1,4.161-8.87s-5.039,3.948-9.867,8.611c-11.9-.41-24.431.04-32.948,2.707A103.932,103.932,0,0,1,853.9,709.917a191.769,191.769,0,0,0,22.842.858c-4.309-1.21-10.443-4.569-15.814-7.848a81.186,81.186,0,0,1,22.9-14.445,199.233,199.233,0,0,0,19.594,4.758,59.471,59.471,0,0,1-10.518-7.9,92.187,92.187,0,0,1,30.448-3.049c7.14,5.66,14.249,10.245,14.249,10.245a52.743,52.743,0,0,1-5.767-9.435c13.7,1.81,29.155,6.207,46.559,14.045,0,0-12.4,34.979-43.371,47.237A41.142,41.142,0,0,1,937.69,735.828Z" transform="translate(-832.54 -679.319)" fill="#ea9bc3"/>
        <path id="Path_34" data-name="Path 34" d="M838.577,739.379q14.365-4.649,28.81-9.056,14.437-4.428,28.926-8.679c19.317-5.66,38.7-11.091,58.174-16.151q14.6-3.8,29.281-7.26c9.787-2.292,19.6-4.455,29.45-6.386q7.386-1.454,14.8-2.692c4.941-.82,9.891-1.558,14.845-2.163s9.913-1.074,14.849-1.291c2.469-.123,4.924-.13,7.365-.086a61.389,61.389,0,0,1,7.162.621l.041.006a2.713,2.713,0,0,0,.832-5.361l-.054-.008a66.127,66.127,0,0,0-7.887-.524c-2.594,0-5.174.07-7.73.25-5.119.329-10.179.92-15.206,1.638s-10.022,1.574-15,2.505-9.925,1.946-14.86,3.025c-9.871,2.149-19.678,4.528-29.448,7.032s-19.5,5.15-29.2,7.887c-19.4,5.475-38.686,11.314-57.9,17.38q-14.406,4.556-28.753,9.285t-28.626,9.658a.192.192,0,0,0-.12.247A.2.2,0,0,0,838.577,739.379Z" transform="translate(-829.166 -680.349)" fill="#c04e97"/>
      </g>
      <g id="Group_76" data-name="Group 76" transform="translate(52.513 97.028)">
        <path id="Path_35" data-name="Path 35" d="M945.293,718.812s2.464,9.9,4.093,19.732a50.608,50.608,0,0,1-18.893,16.607c-.26-6.853-.976-13.4-2.642-16.17,0,0-.456,8.891-1.574,18.11a62.577,62.577,0,0,1-8.568,2.8s-4.311,1.25-10.548,3.394c.774-3.571,1.131-6.644.724-8.538,0,0-1.7,4.252-4.156,9.74-12.154,4.344-29.087,11.31-37.426,18.886a87.788,87.788,0,0,1,2.135-32.106c10.128-5.187,20.761-9.366,20.761-9.366-3.5-1.465-10.909-.184-18.446,1.845A70.67,70.67,0,0,1,881.2,724.606c8.953-2.084,21.994-2.7,21.994-2.7-2.514-2.219-10.276-2.9-17.016-3.044,6.951-7.162,16.2-13.517,28.484-18.123,9.439,1.307,18.579,3.258,18.579,3.258-1.842-1.91-6.314-3.861-11.484-5.618,10.814-3.163,23.682-5.076,38.989-5.242,0,0,2,21.346-8.247,40.31C950.263,726.991,947.685,720.968,945.293,718.812Z" transform="translate(-865.697 -638.049)" fill="#cf70a3"/>
        <path id="Path_36" data-name="Path 36" d="M874.54,787.433q9.369-8.721,18.888-17.282,9.5-8.576,19.11-17.033,19.219-16.907,38.9-33.257,9.859-8.148,19.894-16.069c6.7-5.269,13.46-10.448,20.334-15.461q5.153-3.763,10.4-7.371c3.5-2.4,7.038-4.743,10.627-6.983s7.23-4.377,10.945-6.311c1.853-.98,3.736-1.866,5.627-2.707a52.163,52.163,0,0,1,5.725-2.089l.033-.009a2.3,2.3,0,0,0-1.283-4.417l-.044.014a56.148,56.148,0,0,0-6.246,2.423c-1.991.933-3.951,1.907-5.85,2.961-3.812,2.089-7.488,4.355-11.094,6.709s-7.135,4.8-10.622,7.3-6.927,5.052-10.331,7.649c-6.813,5.188-13.5,10.53-20.1,15.956s-13.133,10.944-19.6,16.522q-19.411,16.739-38.248,34.1-9.434,8.661-18.761,17.437t-18.53,17.678a.162.162,0,0,0,0,.233A.166.166,0,0,0,874.54,787.433Z" transform="translate(-860.698 -658.353)" fill="#c04e97"/>
      </g>
      <g id="Group_77" data-name="Group 77" transform="translate(23.741)">
        <path id="Path_37" data-name="Path 37" d="M903.235,714.3s-7.854-3.544-16.089-6.191a79.776,79.776,0,0,1-12.809-33.525c4.884-.683,10.006-1.134,13.424-.714,0,0-7.026-3.171-14.754-5.754-1.345-6.2-3.689-16.287-6.869-27.23a53.718,53.718,0,0,1,11.961,1.191s-6.625-4.217-13.989-7.9c-4.384-13.939-10.017-28.248-16.579-37.012a127.49,127.49,0,0,1,51.481,9.618,235.006,235.006,0,0,0,8.33,26.778c-.361-5.481,1.023-13.948,2.623-21.5a99.577,99.577,0,0,1,26.057,20.592,244.1,244.1,0,0,0,2.493,24.61c.6-4.156,2.558-9.808,4.845-15.393a113.062,113.062,0,0,1,15.955,33.982c-3.635,10.57-6.037,20.665-6.037,20.665A64.486,64.486,0,0,1,961.84,686c3.5,16.588,4.716,36.262,2.753,59.6,0,0-45.528-.07-72.349-30.9A50.366,50.366,0,0,1,903.235,714.3Z" transform="translate(-847.53 -597.089)" fill="#ea9bc3"/>
        <path id="Path_38" data-name="Path 38" d="M856.207,601.951q11.239,14.724,22.234,29.637,11.016,14.893,21.846,29.92,21.649,30.056,42.429,60.71,10.351,15.347,20.348,30.912c6.647,10.388,13.156,20.858,19.407,31.464q4.7,7.949,9.156,16.02c2.965,5.382,5.839,10.806,8.56,16.291s5.29,11.029,7.553,16.651c1.151,2.806,2.16,5.645,3.106,8.486a74.8,74.8,0,0,1,2.2,8.54l.01.049a3.327,3.327,0,0,0,6.541-1.226l-.013-.067a81.493,81.493,0,0,0-2.612-9.338c-1.064-3-2.192-5.958-3.445-8.842-2.471-5.786-5.22-11.4-8.1-16.922s-5.911-10.952-9.02-16.325-6.3-10.689-9.564-15.958c-6.516-10.543-13.269-20.918-20.153-31.2s-13.917-20.456-21.042-30.56q-21.378-30.311-43.737-59.885-11.149-14.8-22.477-29.474t-22.857-29.178a.239.239,0,0,0-.375.295Z" transform="translate(-842.494 -594.475)" fill="#c04e97"/>
      </g>
    </g>
    <g id="Group_82" data-name="Group 82" transform="translate(924.15 688.253)">
      <path id="Path_39" data-name="Path 39" d="M1209.052,809.215H919.873V628.365a6.131,6.131,0,0,1,6.074-6.188h277.031a6.131,6.131,0,0,1,6.074,6.188Z" transform="translate(-873.169 -622.177)" fill="#c04e97"/>
      <rect id="Rectangle_26" data-name="Rectangle 26" width="268.015" height="159.482" transform="translate(57.288 13.102)" fill="#5e89c7"/>
      <g id="Group_81" data-name="Group 81" transform="translate(0 183.612)">
        <g id="Group_80" data-name="Group 80">
          <path id="Path_40" data-name="Path 40" d="M891.1,774.266c-2.659,3.476,2.423,13.858,10.386,13.858h366.572c7.96,0,12.976-10.382,9.927-13.858Z" transform="translate(-890.383 -717.007)" fill="#bebdbd"/>
          <path id="Path_41" data-name="Path 41" d="M1276.7,793.47c3.047,3.473-.944,6.291-8.9,6.291H901.221c-7.963,0-12.263-2.818-9.6-6.291q18.76-24.535,37.527-49.068c2.657-3.473,9.615-6.291,15.54-6.291H1217.4c5.92,0,13.2,2.817,16.245,6.291Q1255.17,768.943,1276.7,793.47Z" transform="translate(-890.123 -738.112)" fill="#f1d7d3"/>
          <g id="Group_79" data-name="Group 79" transform="translate(53.028 6.4)">
            <path id="Path_42" data-name="Path 42" d="M947.294,750.954h-12.38c1.752-2.593,2.626-3.893,4.374-6.487h11.894Z" transform="translate(-917.417 -740.802)" fill="#c04e97"/>
            <path id="Path_43" data-name="Path 43" d="M957.424,750.954H945.045c1.5-2.593,2.249-3.893,3.745-6.487h11.888C959.378,747.061,958.725,748.362,957.424,750.954Z" transform="translate(-911.503 -740.802)" fill="#c04e97"/>
            <path id="Path_44" data-name="Path 44" d="M956.284,744.575H938.212c.651-.968.98-1.452,1.633-2.422h17.8C957.1,743.122,956.827,743.607,956.284,744.575Z" transform="translate(-915.492 -742.153)" fill="#c04e97"/>
            <path id="Path_45" data-name="Path 45" d="M969.662,744.576H951.585c.521-.968.782-1.452,1.307-2.422h17.8C970.283,743.122,970.074,743.607,969.662,744.576Z" transform="translate(-907.685 -742.153)" fill="#c04e97"/>
            <path id="Path_46" data-name="Path 46" d="M983.042,744.575H964.959c.391-.968.589-1.452.982-2.422h17.8C983.464,743.122,983.322,743.607,983.042,744.575Z" transform="translate(-899.878 -742.153)" fill="#c04e97"/>
            <path id="Path_47" data-name="Path 47" d="M996.416,744.575H978.337c.261-.968.393-1.452.652-2.422h17.8C996.644,743.122,996.566,743.607,996.416,744.575Z" transform="translate(-892.069 -742.153)" fill="#c04e97"/>
            <path id="Path_48" data-name="Path 48" d="M1009.792,744.575H991.713c.13-.968.2-1.452.326-2.422h17.8C1009.82,743.122,1009.812,743.607,1009.792,744.575Z" transform="translate(-884.26 -742.153)" fill="#c04e97"/>
            <path id="Path_49" data-name="Path 49" d="M1023.167,744.575H1005.09v-2.422h17.8C1023,743.122,1023.053,743.607,1023.167,744.575Z" transform="translate(-876.451 -742.153)" fill="#c04e97"/>
            <path id="Path_50" data-name="Path 50" d="M1036.666,744.575h-18.077c-.131-.968-.2-1.452-.329-2.422h17.8C1036.3,743.122,1036.422,743.607,1036.666,744.575Z" transform="translate(-868.763 -742.153)" fill="#c04e97"/>
            <path id="Path_51" data-name="Path 51" d="M1050.166,744.575h-18.085c-.26-.968-.393-1.452-.653-2.422h17.8C1049.6,743.122,1049.793,743.607,1050.166,744.575Z" transform="translate(-861.076 -742.153)" fill="#c04e97"/>
            <path id="Path_52" data-name="Path 52" d="M1063.661,744.575h-18.078c-.394-.968-.593-1.452-.985-2.422H1062.4C1062.906,743.122,1063.158,743.607,1063.661,744.575Z" transform="translate(-853.388 -742.153)" fill="#c04e97"/>
            <path id="Path_53" data-name="Path 53" d="M1077.154,744.575h-18.077c-.523-.968-.787-1.452-1.306-2.422h17.8C1076.2,743.122,1076.517,743.607,1077.154,744.575Z" transform="translate(-845.699 -742.153)" fill="#c04e97"/>
            <path id="Path_54" data-name="Path 54" d="M1093.105,744.575h-20.529c-.654-.968-.983-1.452-1.638-2.422h20.215C1091.933,743.122,1092.325,743.607,1093.105,744.575Z" transform="translate(-838.012 -742.153)" fill="#c04e97"/>
            <path id="Path_55" data-name="Path 55" d="M967.552,750.954H955.175c1.243-2.593,1.866-3.89,3.109-6.484,4.758,0,7.133,0,11.887,0C969.125,747.064,968.6,748.358,967.552,750.954Z" transform="translate(-905.589 -740.802)" fill="#c04e97"/>
            <path id="Path_56" data-name="Path 56" d="M977.682,750.954H965.3c.993-2.593,1.489-3.893,2.482-6.487,4.756,0,7.133,0,11.891,0C978.881,747.064,978.48,748.362,977.682,750.954Z" transform="translate(-899.678 -740.802)" fill="#c04e97"/>
            <path id="Path_57" data-name="Path 57" d="M987.811,750.954H975.436c.738-2.6,1.11-3.89,1.845-6.487H989.17C988.627,747.061,988.355,748.362,987.811,750.954Z" transform="translate(-893.762 -740.802)" fill="#c04e97"/>
            <path id="Path_58" data-name="Path 58" d="M997.941,750.954H985.564c.484-2.593.727-3.894,1.211-6.487h11.891C998.375,747.061,998.229,748.362,997.941,750.954Z" transform="translate(-887.85 -740.802)" fill="#c04e97"/>
            <path id="Path_59" data-name="Path 59" d="M1008.063,750.954H995.694c.233-2.593.35-3.894.585-6.487h11.883C1008.125,747.061,1008.1,748.362,1008.063,750.954Z" transform="translate(-881.936 -740.802)" fill="#c04e97"/>
            <path id="Path_60" data-name="Path 60" d="M1018.219,750.954h-12.375c-.022-2.593-.03-3.893-.051-6.487h11.889C1017.9,747.061,1018,748.362,1018.219,750.954Z" transform="translate(-876.041 -740.802)" fill="#c04e97"/>
            <path id="Path_61" data-name="Path 61" d="M1028.575,750.954H1016.2c-.271-2.593-.407-3.893-.678-6.487h11.881C1027.875,747.061,1028.109,748.362,1028.575,750.954Z" transform="translate(-870.359 -740.802)" fill="#c04e97"/>
            <path id="Path_62" data-name="Path 62" d="M1038.941,750.954h-12.375c-.526-2.593-.789-3.893-1.314-6.487h11.889C1037.859,747.061,1038.22,748.362,1038.941,750.954Z" transform="translate(-864.682 -740.802)" fill="#c04e97"/>
            <path id="Path_63" data-name="Path 63" d="M944.258,756.414H931.233l4.37-6.485h12.542C946.589,752.523,945.813,753.819,944.258,756.414Z" transform="translate(-919.566 -737.614)" fill="#c04e97"/>
            <path id="Path_64" data-name="Path 64" d="M954.922,756.414H941.9c1.5-2.6,2.246-3.891,3.741-6.485h12.542C956.877,752.522,956.223,753.819,954.922,756.414Z" transform="translate(-913.341 -737.614)" fill="#c04e97"/>
            <path id="Path_65" data-name="Path 65" d="M965.585,756.414H952.556c1.243-2.6,1.866-3.891,3.109-6.485H968.2C967.156,752.523,966.631,753.819,965.585,756.414Z" transform="translate(-907.118 -737.614)" fill="#c04e97"/>
            <path id="Path_66" data-name="Path 66" d="M976.249,756.414H963.216c.992-2.6,1.489-3.891,2.475-6.485h12.547C977.44,752.523,977.042,753.819,976.249,756.414Z" transform="translate(-900.895 -737.614)" fill="#c04e97"/>
            <path id="Path_67" data-name="Path 67" d="M986.91,756.414H973.882c.738-2.6,1.107-3.891,1.845-6.484l12.539,0C987.721,752.523,987.452,753.819,986.91,756.414Z" transform="translate(-894.669 -737.614)" fill="#c04e97"/>
            <path id="Path_68" data-name="Path 68" d="M997.566,756.414H984.541c.486-2.6.727-3.891,1.213-6.485h12.539C998,752.522,997.857,753.819,997.566,756.414Z" transform="translate(-888.447 -737.614)" fill="#c04e97"/>
            <path id="Path_69" data-name="Path 69" d="M1008.226,756.414H995.2c.233-2.6.352-3.891.581-6.485h12.535C1008.279,752.523,1008.264,753.819,1008.226,756.414Z" transform="translate(-882.222 -737.614)" fill="#c04e97"/>
            <path id="Path_70" data-name="Path 70" d="M1018.909,756.414h-13.025c-.021-2.6-.029-3.891-.049-6.485h12.537C1018.587,752.523,1018.7,753.819,1018.909,756.414Z" transform="translate(-876.017 -737.614)" fill="#c04e97"/>
            <path id="Path_71" data-name="Path 71" d="M1029.8,756.414H1016.78c-.273-2.6-.41-3.891-.68-6.485h12.529C1029.1,752.523,1029.334,753.819,1029.8,756.414Z" transform="translate(-870.024 -737.614)" fill="#c04e97"/>
            <path id="Path_72" data-name="Path 72" d="M1040.7,756.414h-13.025c-.524-2.6-.789-3.891-1.315-6.485h12.54C1039.617,752.523,1039.976,753.819,1040.7,756.414Z" transform="translate(-864.037 -737.614)" fill="#c04e97"/>
            <path id="Path_73" data-name="Path 73" d="M941.225,761.875H927.549c1.749-2.593,2.626-3.89,4.374-6.482,5.277,0,7.916,0,13.191,0C943.559,757.982,942.78,759.282,941.225,761.875Z" transform="translate(-921.716 -734.427)" fill="#c04e97"/>
            <path id="Path_74" data-name="Path 74" d="M952.421,761.873H938.744l3.742-6.482h13.191C954.374,757.984,953.723,759.281,952.421,761.873Z" transform="translate(-915.181 -734.425)" fill="#c04e97"/>
            <path id="Path_75" data-name="Path 75" d="M963.616,761.873H949.937c1.245-2.593,1.866-3.89,3.109-6.482h13.191Z" transform="translate(-908.647 -734.425)" fill="#c04e97"/>
            <path id="Path_76" data-name="Path 76" d="M974.812,761.873H961.128c.991-2.593,1.489-3.89,2.48-6.482H976.8C976.007,757.984,975.607,759.281,974.812,761.873Z" transform="translate(-902.114 -734.425)" fill="#c04e97"/>
            <path id="Path_77" data-name="Path 77" d="M986,761.873H972.328c.735-2.593,1.107-3.89,1.844-6.482h13.189C986.819,757.984,986.545,759.281,986,761.873Z" transform="translate(-895.576 -734.425)" fill="#c04e97"/>
            <path id="Path_78" data-name="Path 78" d="M997.192,761.873l-13.674,0c.483-2.594.729-3.891,1.215-6.484h13.191C997.631,757.984,997.483,759.281,997.192,761.873Z" transform="translate(-889.044 -734.425)" fill="#c04e97"/>
            <path id="Path_79" data-name="Path 79" d="M1008.382,761.873l-13.669,0c.233-2.594.352-3.891.583-6.484h13.185C1008.441,757.984,1008.424,759.281,1008.382,761.873Z" transform="translate(-882.509 -734.425)" fill="#c04e97"/>
            <path id="Path_80" data-name="Path 80" d="M1019.6,761.873h-13.676c-.017-2.593-.028-3.89-.047-6.482h13.188C1019.28,757.984,1019.386,759.281,1019.6,761.873Z" transform="translate(-875.992 -734.425)" fill="#c04e97"/>
            <path id="Path_81" data-name="Path 81" d="M1031.024,761.873h-13.671c-.272-2.593-.41-3.89-.68-6.482h13.18C1030.321,757.984,1030.557,759.281,1031.024,761.873Z" transform="translate(-869.689 -734.425)" fill="#c04e97"/>
            <path id="Path_82" data-name="Path 82" d="M1042.452,761.873h-13.677c-.524-2.593-.785-3.89-1.311-6.482h13.186C1041.368,757.984,1041.729,759.281,1042.452,761.873Z" transform="translate(-863.391 -734.425)" fill="#c04e97"/>
            <path id="Path_83" data-name="Path 83" d="M938.2,767.335H923.866c1.75-2.6,2.629-3.893,4.377-6.485h13.836C940.526,763.443,939.751,764.74,938.2,767.335Z" transform="translate(-923.866 -731.239)" fill="#c04e97"/>
            <path id="Path_84" data-name="Path 84" d="M949.921,767.335H935.6c1.5-2.6,2.244-3.893,3.742-6.485h13.839C951.874,763.443,951.221,764.74,949.921,767.335Z" transform="translate(-917.018 -731.239)" fill="#c04e97"/>
            <path id="Path_85" data-name="Path 85" d="M961.646,767.335H947.318c1.245-2.6,1.871-3.893,3.114-6.485h13.836C963.22,763.443,962.7,764.74,961.646,767.335Z" transform="translate(-910.176 -731.239)" fill="#c04e97"/>
            <path id="Path_86" data-name="Path 86" d="M973.339,767.54H958.992c1.025-2.675,1.535-4.015,2.558-6.69h13.844C974.571,763.525,974.163,764.865,973.339,767.54Z" transform="translate(-903.361 -731.239)" fill="#c04e97"/>
            <path id="Path_87" data-name="Path 87" d="M1077.951,767.335H970.768c.738-2.6,1.107-3.893,1.845-6.485h103.536C1076.871,763.443,1077.231,764.74,1077.951,767.335Z" transform="translate(-896.487 -731.239)" fill="#c04e97"/>
            <path id="Path_88" data-name="Path 88" d="M988.421,778.012h81.308l-6.85-11.048H994.892Z" transform="translate(-886.182 -727.67)" fill="#c04e97"/>
            <path id="Path_89" data-name="Path 89" d="M1048.316,750.954h-12.379c-.754-2.593-1.131-3.893-1.882-6.487h11.888C1046.892,747.06,1047.368,748.362,1048.316,750.954Z" transform="translate(-859.542 -740.802)" fill="#c04e97"/>
            <path id="Path_90" data-name="Path 90" d="M1050.554,756.414h-13.028c-.754-2.6-1.129-3.891-1.886-6.485h12.545C1049.134,752.523,1049.607,753.819,1050.554,756.414Z" transform="translate(-858.618 -737.614)" fill="#c04e97"/>
            <path id="Path_91" data-name="Path 91" d="M1052.791,761.873h-13.679c-.755-2.593-1.129-3.89-1.881-6.482h13.189C1051.368,757.984,1051.84,759.281,1052.791,761.873Z" transform="translate(-857.69 -734.425)" fill="#c04e97"/>
            <path id="Path_92" data-name="Path 92" d="M1055.028,767.335H1040.7c-.754-2.6-1.133-3.893-1.885-6.485h13.84C1053.6,763.443,1054.079,764.74,1055.028,767.335Z" transform="translate(-856.764 -731.239)" fill="#c04e97"/>
            <path id="Path_93" data-name="Path 93" d="M1057.691,750.954h-12.379c-.983-2.593-1.476-3.893-2.456-6.487h11.891C1055.924,747.061,1056.513,748.362,1057.691,750.954Z" transform="translate(-854.405 -740.802)" fill="#c04e97"/>
            <path id="Path_94" data-name="Path 94" d="M1060.41,756.414h-13.03c-.983-2.6-1.476-3.891-2.456-6.485h12.54C1058.639,752.522,1059.232,753.819,1060.41,756.414Z" transform="translate(-853.198 -737.614)" fill="#c04e97"/>
            <path id="Path_95" data-name="Path 95" d="M1063.128,761.873h-13.679c-.983-2.593-1.476-3.89-2.458-6.482h13.193C1061.362,757.984,1061.95,759.281,1063.128,761.873Z" transform="translate(-851.992 -734.425)" fill="#c04e97"/>
            <path id="Path_96" data-name="Path 96" d="M1065.842,767.335h-14.328c-.982-2.6-1.473-3.893-2.455-6.485h13.84C1064.079,763.443,1064.665,764.74,1065.842,767.335Z" transform="translate(-850.785 -731.239)" fill="#c04e97"/>
            <path id="Path_97" data-name="Path 97" d="M1067.063,750.954h-12.375c-1.212-2.593-1.818-3.893-3.03-6.487h11.891C1064.955,747.061,1065.658,748.362,1067.063,750.954Z" transform="translate(-849.267 -740.802)" fill="#c04e97"/>
            <path id="Path_98" data-name="Path 98" d="M1070.262,756.414h-13.025c-1.212-2.6-1.82-3.893-3.031-6.485h12.542C1068.152,752.523,1068.857,753.819,1070.262,756.414Z" transform="translate(-847.78 -737.614)" fill="#c04e97"/>
            <path id="Path_99" data-name="Path 99" d="M1073.464,761.873h-13.68c-1.212-2.593-1.815-3.89-3.026-6.482h13.189C1071.353,757.984,1072.056,759.281,1073.464,761.873Z" transform="translate(-846.291 -734.425)" fill="#c04e97"/>
            <path id="Path_100" data-name="Path 100" d="M1076.661,767.335h-14.33c-1.21-2.6-1.815-3.893-3.026-6.485h13.842C1074.55,763.443,1075.255,764.74,1076.661,767.335Z" transform="translate(-844.803 -731.239)" fill="#c04e97"/>
            <path id="Path_101" data-name="Path 101" d="M1076.436,750.954h-12.379c-1.437-2.593-2.157-3.893-3.6-6.487h11.888C1073.986,747.061,1074.8,748.362,1076.436,750.954Z" transform="translate(-844.128 -740.802)" fill="#c04e97"/>
            <path id="Path_102" data-name="Path 102" d="M1080.116,756.414h-13.025c-1.44-2.6-2.162-3.891-3.6-6.485h12.542C1077.665,752.523,1078.482,753.819,1080.116,756.414Z" transform="translate(-842.36 -737.614)" fill="#c04e97"/>
            <path id="Path_103" data-name="Path 103" d="M1083.8,761.873h-13.676c-1.441-2.593-2.158-3.89-3.6-6.482h13.191C1081.346,757.984,1082.164,759.281,1083.8,761.873Z" transform="translate(-840.591 -734.425)" fill="#c04e97"/>
            <path id="Path_104" data-name="Path 104" d="M1087.48,767.335h-14.329c-1.439-2.6-2.16-3.893-3.6-6.485h13.842C1085.027,763.443,1085.841,764.74,1087.48,767.335Z" transform="translate(-838.823 -731.239)" fill="#c04e97"/>
            <path id="Path_105" data-name="Path 105" d="M1085.812,750.954h-12.38c-1.669-2.593-2.5-3.893-4.172-6.487h11.893C1083.017,747.061,1083.948,748.362,1085.812,750.954Z" transform="translate(-838.992 -740.802)" fill="#c04e97"/>
            <path id="Path_106" data-name="Path 106" d="M1089.973,756.414h-13.031c-1.669-2.6-2.5-3.891-4.17-6.485h12.543C1087.178,752.523,1088.111,753.819,1089.973,756.414Z" transform="translate(-836.942 -737.614)" fill="#c04e97"/>
            <path id="Path_107" data-name="Path 107" d="M1094.137,761.873h-13.684c-1.668-2.593-2.5-3.89-4.17-6.482h13.194C1091.341,757.984,1092.271,759.281,1094.137,761.873Z" transform="translate(-834.892 -734.425)" fill="#c04e97"/>
            <path id="Path_108" data-name="Path 108" d="M1098.295,767.335h-14.332c-1.666-2.6-2.5-3.893-4.17-6.485h13.845C1095.5,763.443,1096.432,764.74,1098.295,767.335Z" transform="translate(-832.843 -731.239)" fill="#c04e97"/>
            <path id="Path_109" data-name="Path 109" d="M1095.18,750.954H1082.8c-1.9-2.593-2.846-3.893-4.744-6.487h11.892C1092.042,747.061,1093.089,748.362,1095.18,750.954Z" transform="translate(-833.854 -740.802)" fill="#c04e97"/>
            <path id="Path_110" data-name="Path 110" d="M1099.823,756.414h-13.028c-1.894-2.6-2.846-3.891-4.739-6.485h12.537C1096.683,752.523,1097.73,753.819,1099.823,756.414Z" transform="translate(-831.522 -737.614)" fill="#c04e97"/>
            <path id="Path_111" data-name="Path 111" d="M1104.469,761.873H1090.79c-1.9-2.593-2.844-3.89-4.742-6.482h13.189Z" transform="translate(-829.192 -734.425)" fill="#c04e97"/>
            <path id="Path_112" data-name="Path 112" d="M1109.11,767.335h-14.33c-1.9-2.6-2.846-3.893-4.74-6.485h13.839C1105.971,763.443,1107.016,764.74,1109.11,767.335Z" transform="translate(-826.862 -731.239)" fill="#c04e97"/>
          </g>
        </g>
      </g>
    </g>
    <rect id="Rectangle_27" data-name="Rectangle 27" width="268.018" height="159.486" transform="translate(981.435 701.352)" fill="#ea9bc3"/>
    <g id="Group_83" data-name="Group 83" transform="translate(981.435 759.59)">
      <path id="Path_113" data-name="Path 113" d="M974.667,715.311a47.846,47.846,0,0,1-8.422,27.2,48.021,48.021,0,0,1-39.67,20.89h-.021V667.22h.021a48.1,48.1,0,0,1,47.389,39.85A48.8,48.8,0,0,1,974.667,715.311Z" transform="translate(-926.554 -667.22)" fill="#fad8cd"/>
      <circle id="Ellipse_3" data-name="Ellipse 3" cx="30.159" cy="30.159" r="30.159" transform="translate(13.132 39.563)" fill="#fad8cd"/>
      <path id="Path_114" data-name="Path 114" d="M1012.243,741.395c0,.458-.009.917-.041,1.375H951.974c-.032-.458-.043-.917-.043-1.375v-.158a30.156,30.156,0,0,1,60.312.158Z" transform="translate(-911.74 -641.52)" fill="#fad8cd"/>
      <path id="Path_115" data-name="Path 115" d="M974.667,739.068a28.982,28.982,0,0,1-.192,3.332c-.054.586-.139,1.161-.245,1.736H926.554v-29.3a29.839,29.839,0,0,1,13.319-5.568,28.829,28.829,0,0,1,4.631-.363,30.129,30.129,0,0,1,30.163,30.163Z" transform="translate(-926.554 -642.886)" fill="#fad8cd"/>
    </g>
    <g id="Group_84" data-name="Group 84" transform="translate(1148.948 759.59)">
      <path id="Path_116" data-name="Path 116" d="M1065.4,715.311a47.846,47.846,0,0,0,8.422,27.2A48.021,48.021,0,0,0,1113.5,763.4h.022V667.22h-.022a48.1,48.1,0,0,0-47.388,39.85A48.83,48.83,0,0,0,1065.4,715.311Z" transform="translate(-1013.013 -667.22)" fill="#fad8cd"/>
      <circle id="Ellipse_4" data-name="Ellipse 4" cx="30.159" cy="30.159" r="30.159" transform="translate(27.056 39.563)" fill="#fad8cd"/>
      <path id="Path_117" data-name="Path 117" d="M1032.324,741.395c0,.458.011.917.043,1.375H1092.6c.032-.458.043-.917.043-1.375v-.158a30.157,30.157,0,0,0-60.314.158Z" transform="translate(-1032.324 -641.52)" fill="#fad8cd"/>
      <path id="Path_118" data-name="Path 118" d="M1065.4,739.068a28.629,28.629,0,0,0,.192,3.332c.054.586.139,1.161.246,1.736h47.676v-29.3a29.839,29.839,0,0,0-13.319-5.568,28.846,28.846,0,0,0-4.631-.363,30.125,30.125,0,0,0-30.162,30.163Z" transform="translate(-1013.013 -642.886)" fill="#fad8cd"/>
    </g>
    <path id="Path_119" data-name="Path 119" d="M1009.408,671.832l-12.121,93.942h45.5L1029.8,671.832Z" transform="translate(96.172 95.062)" fill="#fff" opacity="0.6"/>
    <path id="Path_120" data-name="Path 120" d="M1010.233,671.832l-7.662,93.942h28.76l-8.2-93.942Z" transform="translate(99.256 95.062)" fill="#fff" opacity="0.6"/>
    <path id="Path_121" data-name="Path 121" d="M1086.521,718.486l-8.953,17.268-25.254-57.364-.862-1.628c-1.289,4.142-2.513,7.857-3.63,11.082-3.206,9.284-5.474,14.534-5.474,14.534h-5.918l-1.2,33.376h-5.3l-1.193-33.376h-6.782q-3.034-7.331-5.686-14.534-2.09-5.716-3.95-11.338l-1,1.885L986.06,735.753l-8.954-17.268,2.577-48.762,21.176-32.823v-.022l.575-.862.139-.214c-.363-1.8-.692-3.576-1.012-5.355h62.251c-.309,1.7-.629,3.375-.958,5.036l.352.532.564.862v.022l21.177,32.823Z" transform="translate(84.391 70.904)" fill="#fad8cd"/>
    <g id="Group_85" data-name="Group 85" transform="translate(1163.981 791.732)">
      <path id="Path_122" data-name="Path 122" d="M1109.561,742.765c0,.458-.011.917-.031,1.375h-67.682c-.021-.458-.032-.917-.032-1.375a33.868,33.868,0,0,1,29.47-33.579,33.866,33.866,0,0,1,18.631,2.843,33.85,33.85,0,0,1,19.5,27.627C1109.518,740.679,1109.561,741.723,1109.561,742.765Z" transform="translate(-1041.816 -675.033)" fill="#fad8cd"/>
      <path id="Path_123" data-name="Path 123" d="M1117.136,698.953v54.522h-50.007a37.511,37.511,0,0,1,23.316-60.048,38.056,38.056,0,0,1,6.27-.521A37.255,37.255,0,0,1,1117.136,698.953Z" transform="translate(-1031.664 -684.368)" fill="#fad8cd"/>
      <path id="Path_124" data-name="Path 124" d="M1109.609,687.707v67.371a34.443,34.443,0,0,1-3.641.192,33.871,33.871,0,0,1-33.729-30.758c-.085-1.023-.138-2.065-.138-3.12a33.909,33.909,0,0,1,37.508-33.685Z" transform="translate(-1024.137 -687.515)" fill="#fad8cd"/>
    </g>
    <g id="Group_86" data-name="Group 86" transform="translate(981.435 791.732)">
      <path id="Path_125" data-name="Path 125" d="M937.747,742.765c0,.458.011.917.032,1.375h67.68c.022-.458.032-.917.032-1.375a33.868,33.868,0,0,0-29.469-33.579,33.866,33.866,0,0,0-18.631,2.843,33.854,33.854,0,0,0-19.506,27.627C937.79,740.679,937.747,741.723,937.747,742.765Z" transform="translate(-920.02 -675.033)" fill="#fad8cd"/>
      <path id="Path_126" data-name="Path 126" d="M926.554,698.953v54.522h50.007a37.511,37.511,0,0,0-23.316-60.048,38.071,38.071,0,0,0-6.27-.521A37.255,37.255,0,0,0,926.554,698.953Z" transform="translate(-926.554 -684.368)" fill="#fad8cd"/>
      <path id="Path_127" data-name="Path 127" d="M926.554,687.707v67.371a34.414,34.414,0,0,0,3.641.192,33.873,33.873,0,0,0,33.729-30.758c.084-1.023.138-2.065.138-3.12a33.909,33.909,0,0,0-37.508-33.685Z" transform="translate(-926.554 -687.515)" fill="#fad8cd"/>
    </g>
    <circle id="Ellipse_5" data-name="Ellipse 5" cx="7.163" cy="7.163" r="7.163" transform="translate(1010.399 751.019)" fill="#fad8cd"/>
    <circle id="Ellipse_6" data-name="Ellipse 6" cx="7.163" cy="7.163" r="7.163" transform="translate(983.691 754.005)" fill="#fad8cd"/>
    <path id="Path_128" data-name="Path 128" d="M962.658,683.71c0,5.263-3.912,9.528-8.736,9.528s-8.736-4.265-8.736-9.528,3.91-9.528,8.736-9.528S962.658,678.449,962.658,683.71Z" transform="translate(65.757 96.434)" fill="#fad8cd"/>
    <circle id="Ellipse_7" data-name="Ellipse 7" cx="7.163" cy="7.163" r="7.163" transform="translate(1030.708 795.764)" fill="#fad8cd"/>
    <circle id="Ellipse_8" data-name="Ellipse 8" cx="7.163" cy="7.163" r="7.163" transform="translate(1064.116 833.051)" fill="#fad8cd"/>
    <circle id="Ellipse_9" data-name="Ellipse 9" cx="10.599" cy="10.599" r="10.599" transform="translate(1142.784 834.477)" fill="#fad8cd"/>
    <circle id="Ellipse_10" data-name="Ellipse 10" cx="10.599" cy="10.599" r="10.599" transform="translate(1174.232 800.27)" fill="#fad8cd"/>
    <circle id="Ellipse_11" data-name="Ellipse 11" cx="10.599" cy="10.599" r="10.599" transform="translate(1198.663 777.954)" fill="#fad8cd"/>
    <circle id="Ellipse_12" data-name="Ellipse 12" cx="10.599" cy="10.599" r="10.599" transform="translate(1204.198 768.474)" fill="#fad8cd"/>
    <circle id="Ellipse_13" data-name="Ellipse 13" cx="10.599" cy="10.599" r="10.599" transform="translate(1216.223 761.768)" fill="#fad8cd"/>
    <circle id="Ellipse_14" data-name="Ellipse 14" cx="6.456" cy="6.456" r="6.456" transform="translate(1185.069 796.471)" fill="#fad8cd"/>
    <path id="Path_129" data-name="Path 129" d="M1046.6,718.064a6.036,6.036,0,1,1-6.036-6.036A6.036,6.036,0,0,1,1046.6,718.064Z" transform="translate(117.912 118.527)" fill="#fad8cd"/>
    <circle id="Ellipse_15" data-name="Ellipse 15" cx="2.101" cy="2.101" r="2.101" transform="translate(1054.334 816.826)" fill="#fff"/>
    <path id="Path_130" data-name="Path 130" d="M1057.857,690.836a2.1,2.1,0,1,1-2.1-2.1A2.1,2.1,0,0,1,1057.857,690.836Z" transform="translate(129.076 104.929)" fill="#fff"/>
    <circle id="Ellipse_16" data-name="Ellipse 16" cx="2.101" cy="2.101" r="2.101" transform="translate(1207.16 760.711)" fill="#fff"/>
    <path id="Path_131" data-name="Path 131" d="M983.066,709.851a1.448,1.448,0,1,1-1.449-1.448A1.448,1.448,0,0,1,983.066,709.851Z" transform="translate(86.179 116.411)" fill="#fff"/>
    <path id="Path_132" data-name="Path 132" d="M1034.307,709.851a1.449,1.449,0,1,1-1.449-1.448A1.449,1.449,0,0,1,1034.307,709.851Z" transform="translate(116.09 116.411)" fill="#fff"/>
    <path id="Path_133" data-name="Path 133" d="M1051.906,690.6a1.449,1.449,0,1,1-1.449-1.449A1.448,1.448,0,0,1,1051.906,690.6Z" transform="translate(126.364 105.169)" fill="#fff"/>
    <circle id="Ellipse_17" data-name="Ellipse 17" cx="6.091" cy="6.091" r="6.091" transform="translate(1193.981 751.035)" fill="#fad8cd"/>
    <g id="Group_90" data-name="Group 90" transform="translate(1177.485 612.251)">
      <circle id="Ellipse_18" data-name="Ellipse 18" cx="47.912" cy="47.912" r="47.912" fill="#c04e97"/>
      <circle id="Ellipse_19" data-name="Ellipse 19" cx="45.186" cy="45.186" r="45.186" transform="translate(2.726 2.726)" fill="#ea9bc3"/>
      <path id="Path_134" data-name="Path 134" d="M1114.528,595.874l-9.522-8.555h-26.615v5.7h-11.682v53.247h36.137v-5.7h11.682Z" transform="translate(-1040.788 -566.523)" fill="#cd7ca7"/>
      <g id="Group_89" data-name="Group 89" transform="translate(24.002 18.438)">
        <g id="Group_87" data-name="Group 87" transform="translate(11.682)">
          <path id="Path_135" data-name="Path 135" d="M1072.874,585.83v53.247h36.137V594.385l-9.522-8.555Z" transform="translate(-1072.874 -585.83)" fill="#ecebeb"/>
          <path id="Path_136" data-name="Path 136" d="M1099.2,594.385l-9.522-8.555v8.555Z" transform="translate(-1063.064 -585.83)" fill="#bebdbd"/>
          <rect id="Rectangle_28" data-name="Rectangle 28" width="31.643" height="1.52" transform="translate(2.383 13.211)" fill="#d1d0cf"/>
          <rect id="Rectangle_29" data-name="Rectangle 29" width="31.643" height="1.52" transform="translate(2.383 18.437)" fill="#d1d0cf"/>
          <rect id="Rectangle_30" data-name="Rectangle 30" width="31.643" height="1.52" transform="translate(2.383 23.664)" fill="#d1d0cf"/>
          <rect id="Rectangle_31" data-name="Rectangle 31" width="31.643" height="1.52" transform="translate(2.383 28.89)" fill="#d1d0cf"/>
          <rect id="Rectangle_32" data-name="Rectangle 32" width="27.367" height="1.52" transform="translate(2.383 34.116)" fill="#d1d0cf"/>
          <rect id="Rectangle_33" data-name="Rectangle 33" width="27.367" height="1.52" transform="translate(2.383 39.343)" fill="#d1d0cf"/>
          <rect id="Rectangle_34" data-name="Rectangle 34" width="27.367" height="1.52" transform="translate(2.383 44.569)" fill="#d1d0cf"/>
        </g>
        <g id="Group_88" data-name="Group 88" transform="translate(0 5.701)">
          <path id="Path_137" data-name="Path 137" d="M1065.5,589.43v53.247h36.137V597.985l-9.522-8.555Z" transform="translate(-1065.498 -589.43)" fill="#fff"/>
          <path id="Path_138" data-name="Path 138" d="M1091.825,597.985l-9.522-8.555v8.555Z" transform="translate(-1055.688 -589.43)" fill="#dbdbdb"/>
          <rect id="Rectangle_35" data-name="Rectangle 35" width="31.643" height="1.52" transform="translate(2.383 13.211)" fill="#f0f0f0"/>
          <rect id="Rectangle_36" data-name="Rectangle 36" width="31.643" height="1.52" transform="translate(2.383 18.437)" fill="#f0f0f0"/>
          <rect id="Rectangle_37" data-name="Rectangle 37" width="31.643" height="1.52" transform="translate(2.383 23.664)" fill="#f0f0f0"/>
          <rect id="Rectangle_38" data-name="Rectangle 38" width="31.643" height="1.52" transform="translate(2.383 28.89)" fill="#f0f0f0"/>
          <rect id="Rectangle_39" data-name="Rectangle 39" width="27.367" height="1.52" transform="translate(2.383 34.117)" fill="#f0f0f0"/>
          <rect id="Rectangle_40" data-name="Rectangle 40" width="27.367" height="1.52" transform="translate(2.383 39.343)" fill="#f0f0f0"/>
          <rect id="Rectangle_41" data-name="Rectangle 41" width="27.367" height="1.52" transform="translate(2.383 44.57)" fill="#f0f0f0"/>
        </g>
      </g>
    </g>
    <g id="Group_92" data-name="Group 92" transform="translate(1172.61 538.049)">
      <g id="Group_91" data-name="Group 91">
        <rect id="Rectangle_42" data-name="Rectangle 42" width="56.983" height="32.561" transform="translate(0 26.928)" fill="#e4d5c9"/>
        <path id="Path_139" data-name="Path 139" d="M1104.247,554.295l-28.491-26.959-28.491,26.959Z" transform="translate(-1047.264 -527.336)" fill="#ece0ce"/>
        <rect id="Rectangle_43" data-name="Rectangle 43" width="43.754" height="50.831" transform="translate(6.614 3.501)" fill="#fffefe"/>
        <path id="Path_140" data-name="Path 140" d="M1047.265,576.9l28.759-16.281-28.76-16.281Z" transform="translate(-1047.264 -517.411)" fill="#ea9bc3"/>
        <path id="Path_141" data-name="Path 141" d="M1093.844,576.9l-28.759-16.281,28.76-16.281Z" transform="translate(-1036.862 -517.411)" fill="#ea9bc3"/>
        <path id="Path_142" data-name="Path 142" d="M1104.247,572.027l-28.491-19.341-28.491,19.341Z" transform="translate(-1047.264 -512.538)" fill="#ea9bc3"/>
      </g>
      <rect id="Rectangle_44" data-name="Rectangle 44" width="36.831" height="1.42" transform="translate(10.344 12.059)" fill="#f0f0f0"/>
      <rect id="Rectangle_45" data-name="Rectangle 45" width="36.831" height="1.42" transform="translate(10.344 16.529)" fill="#f0f0f0"/>
      <rect id="Rectangle_46" data-name="Rectangle 46" width="36.831" height="1.42" transform="translate(10.344 21)" fill="#f0f0f0"/>
      <rect id="Rectangle_47" data-name="Rectangle 47" width="36.831" height="1.42" transform="translate(10.344 25.47)" fill="#f0f0f0"/>
      <rect id="Rectangle_48" data-name="Rectangle 48" width="36.831" height="1.42" transform="translate(10.344 29.94)" fill="#f0f0f0"/>
      <path id="Path_143" data-name="Path 143" d="M1065.254,552.686l28.49,16.927v2.414Z" transform="translate(-1036.763 -512.538)" fill="#d663a2"/>
      <path id="Path_144" data-name="Path 144" d="M1075.755,552.686l-28.49,16.927v2.414Z" transform="translate(-1047.264 -512.538)" fill="#d663a2"/>
    </g>
    <g id="Group_103" data-name="Group 103" transform="translate(1278.719 703.003)">
      <g id="Group_94" data-name="Group 94">
        <path id="Path_145" data-name="Path 145" d="M1119.251,653.775c4.984-4.737,3.223-7.656,4.587-7.3s4.222,3.631,5.052,3.764c.611.1.356,4.156.426,4.72a8.008,8.008,0,0,1-.82,2.64c-.093.024-4.422.529-4.629.559a13.247,13.247,0,0,1-2.052-.725c-.111-.065-1.657-1.305-1.837-1.465A14.876,14.876,0,0,1,1119.251,653.775Z" transform="translate(-1111.351 -622.758)" fill="#ffc090"/>
        <path id="Path_146" data-name="Path 146" d="M1119.251,653.775c4.984-4.737,3.223-7.656,4.587-7.3s4.222,3.631,5.052,3.764c.611.1.356,4.156.426,4.72a8.008,8.008,0,0,1-.82,2.64c-.093.024-4.422.529-4.629.559a13.247,13.247,0,0,1-2.052-.725c-.111-.065-1.657-1.305-1.837-1.465A14.876,14.876,0,0,1,1119.251,653.775Z" transform="translate(-1111.351 -622.758)" fill="#e47e6c"/>
        <path id="Path_147" data-name="Path 147" d="M1133.863,657.043a5.751,5.751,0,0,0-.645-3.9,12.8,12.8,0,0,1-1.748-4.83c-.477-3.175-.718-3.644-1.512-3.183-.7.394-1.391,2.06-1.183,4.119a10.919,10.919,0,0,1,.154,1.967,7.955,7.955,0,0,0-.383,4.059c.456,2.29.35,1.764-.458,1.883-2.4.352-3.659,2.2-5.459,1.132a6.766,6.766,0,0,1-3.055-3.19s-.882-1.5-.9-.306c-.032,1.786,4.818,5.247,6.012,5.9,2.417,1.327,3.228,1.53,4.237,1.337s10.777,9.206,11.953,10.258,6.439-3.953,4.886-5.109S1133.665,657.615,1133.863,657.043Z" transform="translate(-1111.692 -623.619)" fill="#f79983"/>
        <path id="Path_148" data-name="Path 148" d="M1126.17,644.995c.32.136.526.778.782,2.295a.383.383,0,0,1-.051-.032A2.676,2.676,0,0,1,1126.17,644.995Z" transform="translate(-1107.333 -623.607)" fill="#1a1a1a" style="mix-blend-mode: screen;isolation: isolate"/>
        <g id="Group_93" data-name="Group 93">
          <path id="Path_149" data-name="Path 149" d="M1120.677,658.616c2.661,1.885,7.486-3.722,9.334-5.549a13.7,13.7,0,0,1,3.641-2.325c1.088-.507,1.935-.8,1.935-.8l-7.071-3.668a5.2,5.2,0,0,1-.8,1.532c-2.081,2.876-7.022,5.551-8.581,6.69C1117.3,655.831,1118.016,656.732,1120.677,658.616Z" transform="translate(-1112.013 -622.862)" fill="#c04e97"/>
          <path id="Path_150" data-name="Path 150" d="M1124.178,647.8c.152.095.309.18.467.264.743.39,1.519.708,2.293,1.034a12.917,12.917,0,0,1,3.176,1.641c1.088-.507,1.935-.8,1.935-.8l-7.071-3.668A5.194,5.194,0,0,1,1124.178,647.8Z" transform="translate(-1108.475 -622.862)" fill="#c04e97"/>
          <path id="Path_151" data-name="Path 151" d="M1116.172,651.589c5.936-1,12.96,2.531,17.144,5.12,2.249,1.392,3.679,2.513,3.679,2.513s3.321,2.265,5.236-.808c.045-.073.087-.146.128-.217a4.606,4.606,0,0,0-.2-5.2,42.33,42.33,0,0,1-4-3.693c-7.624-8.025-9.03-16.023-9.03-16.023l-11.194,15.809Z" transform="translate(-1113.148 -630.445)" fill="#c04e97"/>
          <path id="Path_152" data-name="Path 152" d="M1116.172,651.591c5.937-1,12.96,2.529,17.144,5.119,1.5-2.341,3.367-5.215,4.849-7.406-7.624-8.025-9.03-16.023-9.03-16.023Z" transform="translate(-1113.148 -630.445)" fill="#fffdee"/>
          <path id="Path_153" data-name="Path 153" d="M1116.172,645.807c5.936-1,12.96,2.531,17.144,5.12,2.249,1.392,3.679,2.513,3.679,2.513s3.321,2.265,5.236-.808c.045-.073.087-.146.128-.217a14.485,14.485,0,0,0-1.519-.211,11.681,11.681,0,0,1-3.906-1.064,48.91,48.91,0,0,1-5.522-3.73,23.212,23.212,0,0,0-10.925-4.165,9.05,9.05,0,0,0-2.547.062Z" transform="translate(-1113.148 -624.663)" fill="#040505" opacity="0.1"/>
          <path id="Path_154" data-name="Path 154" d="M1119.052,640.058c-4.35,6.128-6.048,12.394-3.79,14s7.616-2.064,11.968-8.191,6.047-12.394,3.788-14S1123.4,633.93,1119.052,640.058Z" transform="translate(-1114.263 -631.491)" fill="#c04e97"/>
          <path id="Path_155" data-name="Path 155" d="M1115.216,653.016c.722.513,1.9.269,3.31-.562a27.471,27.471,0,0,0,7.423-7.5c2.67-3.761,4.374-7.509,4.723-10.019.184-1.332-.013-2.317-.649-2.77-1.839-1.307-6.646,2.3-10.733,8.06S1113.377,651.711,1115.216,653.016Z" transform="translate(-1114.124 -631.251)" fill="#fffdee"/>
          <path id="Path_156" data-name="Path 156" d="M1117.986,647.795a12.669,12.669,0,0,0-.944,3.54,23.179,23.179,0,0,0,5.453-4.951c.665-.789,1.326-1.641,1.97-2.547.721-1.015,1.372-2.032,1.945-3.022a21.064,21.064,0,0,0,2.778-7c-2.837,1.12-4.987,3.465-6.739,5.892a38.451,38.451,0,0,0-2.552,4.048c-.027.048-.052.1-.078.144A38.484,38.484,0,0,0,1117.986,647.795Z" transform="translate(-1112.641 -630.132)" fill="#040505" opacity="0.1"/>
          <path id="Path_157" data-name="Path 157" d="M1118.787,642l.014.014,2.675,2.482c.665-.789,1.326-1.641,1.97-2.547.721-1.015,1.372-2.032,1.945-3.022l-3.084-1.869-3.429,4.811Z" transform="translate(-1111.622 -628.242)" fill="#c04e97"/>
          <path id="Path_158" data-name="Path 158" d="M1119.731,638.922c-.971,1.367-1.343,2.77-.833,3.133s1.712-.453,2.683-1.82,1.343-2.768.833-3.131S1120.7,637.555,1119.731,638.922Z" transform="translate(-1111.691 -628.264)" fill="#7a1e5c"/>
          <path id="Path_159" data-name="Path 159" d="M1119.708,638.835c-.809,1.139-1.119,2.308-.694,2.608s1.425-.375,2.235-1.514,1.12-2.307.694-2.61S1120.517,637.7,1119.708,638.835Z" transform="translate(-1111.601 -628.13)" fill="#c04e97"/>
        </g>
        <path id="Path_160" data-name="Path 160" d="M1122.245,651.136c1.606,1.2,3.209,2.2,3.88,1.3s-.611-1.9-2.217-3.1-2.675-2.49-3.6-1.254S1120.64,649.934,1122.245,651.136Z" transform="translate(-1110.916 -622.094)" fill="#f79983"/>
        <path id="Path_161" data-name="Path 161" d="M1121.453,652.408c1.614,1.207,3.223,2.216,3.888,1.327s-.627-1.889-2.241-3.1-2.691-2.5-3.6-1.275S1119.839,651.2,1121.453,652.408Z" transform="translate(-1111.388 -621.346)" fill="#f79983"/>
        <path id="Path_162" data-name="Path 162" d="M1120.817,653.37c1.462,1.1,2.818,2.167,3.427,1.353s-.561-1.723-2.024-2.818-2.436-2.266-3.273-1.147S1119.354,652.277,1120.817,653.37Z" transform="translate(-1111.686 -620.508)" fill="#f79983"/>
        <path id="Path_163" data-name="Path 163" d="M1123.159,650c1.517,1.311,3.045,2.423,3.779,1.574s-.478-1.934-2-3.245-2.491-2.672-3.5-1.5S1121.641,648.689,1123.159,650Z" transform="translate(-1110.289 -622.798)" fill="#f79983"/>
      </g>
      <rect id="Rectangle_49" data-name="Rectangle 49" width="6.203" height="8.822" transform="translate(69.299 221.583)" fill="#f79a83"/>
      <rect id="Rectangle_50" data-name="Rectangle 50" width="6.203" height="8.822" transform="translate(97.694 221.583)" fill="#f79a83"/>
      <g id="Group_95" data-name="Group 95" transform="translate(54.112 227.58)">
        <path id="Path_164" data-name="Path 164" d="M1172.733,783.179c-.008.728-.043,1.2-.043,1.2h-24.26a4.485,4.485,0,0,1,.058-.765,3.415,3.415,0,0,1,.094-.432c.627-2.255,3.169-2.648,6.287-2.818.182-.013.364-.021.547-.03,3.858-.181,7.167-5.144,7.167-5.144a6.453,6.453,0,0,0,7.9,0C1172.581,776.025,1172.766,780.885,1172.733,783.179Z" transform="translate(-1148.43 -775.187)" fill="#ac3083"/>
        <path id="Path_165" data-name="Path 165" d="M1148.582,780.233h24.151c-.008.729-.043,1.2-.043,1.2h-24.26A4.31,4.31,0,0,1,1148.582,780.233Z" transform="translate(-1148.43 -772.241)" fill="#dfdfde"/>
      </g>
      <path id="Path_166" data-name="Path 166" d="M1154.848,778.454a3.055,3.055,0,0,1-.21.626,5.4,5.4,0,0,1-2.189,2.239c-.892.557-1.747,1.117-2.818.782-.393-.124-.782-.25-1.164-.4a3.44,3.44,0,0,1,.093-.432C1149.188,779.016,1151.729,778.623,1154.848,778.454Z" transform="translate(-1094.296 -545.7)" fill="#dfdfde"/>
      <g id="Group_97" data-name="Group 97" transform="translate(92.42 227.418)">
        <g id="Group_96" data-name="Group 96">
          <path id="Path_167" data-name="Path 167" d="M1188.058,784.6h-15.44s.03-.622.128-1.359c.008-.093.021-.19.033-.287a5.622,5.622,0,0,1,.529-1.939c.55-.83,2.483-1.413,3.033-3.309.665-2.285,4-2.619,4-2.619,1.794.136,4.214.784,4.18,2.472a4.905,4.905,0,0,0,2.158,3.18c.542.23.909,1.418,1.125,2.412a.682.682,0,0,1,.022.089c.122.577.195,1.075.22,1.27Z" transform="translate(-1172.618 -775.085)" fill="#ac3083"/>
          <path id="Path_168" data-name="Path 168" d="M1188.058,781.592h-15.44s.03-.622.128-1.359h15.079C1187.985,780.974,1188.058,781.592,1188.058,781.592Z" transform="translate(-1172.618 -772.08)" fill="#dfdfde"/>
        </g>
        <path id="Path_169" data-name="Path 169" d="M1188.058,782.513c0,.081,0,.161-.013.242a.351.351,0,0,1-.013.089h-15.415s.03-.622.128-1.359c.008-.094.021-.19.033-.287.99-1.8,3.956-3.11,7.464-3.11,3.633,0,6.688,1.4,7.559,3.308A2.652,2.652,0,0,1,1188.058,782.513Z" transform="translate(-1172.618 -773.332)" fill="#dfdfde"/>
      </g>
      <path id="Path_170" data-name="Path 170" d="M1199.18,704.217l-.552,10.587-5.007,97h-7.892l-7.32-86.881-.446,2.928-13.09,85.226-1.8.042-5.431.106,3.012-98.231.318-10.778Z" transform="translate(-1088.942 -589.036)" fill="#d65f9f"/>
      <path id="Path_171" data-name="Path 171" d="M1175.962,720.008l-13.091,85.226-1.8.042,10.714-82.51-2.461-5.113Z" transform="translate(-1086.94 -581.193)" fill="#c82480"/>
      <g id="Group_98" data-name="Group 98" transform="translate(103.598 121.159)">
        <path id="Path_172" data-name="Path 172" d="M1182.66,721.7c-1.476,17.546-3,35.688-2.466,53.281.059,1.881-.021,6.417-.119,11.668-.147,8.335-.338,18.71,0,21.751.046.428.093.83.134,1.207H1180q-.064-.558-.136-1.185c-.342-3.05-.152-13.434,0-21.777.1-5.247.177-9.778.117-11.656-.537-17.61.991-35.756,2.468-53.306.38-4.5.77-9.156,1.117-13.695l.212.016C1183.431,712.548,1183.042,717.2,1182.66,721.7Z" transform="translate(-1179.676 -707.992)" fill="#c82480"/>
      </g>
      <path id="Path_173" data-name="Path 173" d="M1198.063,704.212l-.545,10.586c-13.387,3.964-26.14,4.549-37.982.195l.329-10.781Z" transform="translate(-1087.834 -589.039)" fill="#c82480"/>
      <path id="Path_174" data-name="Path 174" d="M1199.439,731.673a2.011,2.011,0,0,1-1.408,2c-13.186,4.13-25.741,4.715-37.365.084a2,2,0,0,1-1.26-1.977l3.239-55.474a10.1,10.1,0,0,1,8.823-9.286,8.557,8.557,0,0,1,.882-.043h14.932a12.474,12.474,0,0,1,1.75.169c17,2.331,7.619,4.644,7.977,9.431l.146,3.335,2.262,51.242Z" transform="translate(-1087.913 -610.776)" fill="#ac3083"/>
      <g id="Group_99" data-name="Group 99" transform="translate(23.736 38.714)">
        <path id="Path_175" data-name="Path 175" d="M1193.961,675.138c3.324,2.33,1.314,7.862-2.263,9.781-3.977,2.135-11.343,3.533-24.589-.445l-7.824-2.723s-23.856-12.516-30.034-20.983l4.232-4.834s23.585,13.926,32.556,16.04C1166.037,671.975,1185.369,669.117,1193.961,675.138Z" transform="translate(-1129.25 -655.935)" fill="#ac3083"/>
      </g>
      <path id="Path_176" data-name="Path 176" d="M1182.548,729.7l2.285-35.352c-4.49-4.636-5.84-15.6-5.84-15.6l6.723-3.6,2.261,51.242Z" transform="translate(-1076.476 -606.008)" fill="#711d5a"/>
      <g id="Group_100" data-name="Group 100" transform="translate(96.294 113.916)">
        <path id="Path_177" data-name="Path 177" d="M1187.589,734.616c-.927-.147-.182-2.99-.079-4.515s-.067-1.829-.247-1.671a30.007,30.007,0,0,0-1.2,4.671c-.246,1.416-.58,3.673-1.562,3.475s-.477-2.441-.2-4.366.993-3.663.542-3.785-2.32,6.788-2.491,7.295-.624,2.178-1.468,1.983-.573-1.707-.418-2.493.684-2.955,1.237-4.737.74-2.354.467-2.5-2.124,3.773-2.757,5.215-1.569,2.618-2.331,1.964.692-3.3,1.419-4.861a38.661,38.661,0,0,0,2.236-5.432c.249-1.175.711-2.187.079-2.225h0c-.144-.017-.256-.036-.326-.049a4.252,4.252,0,0,0-2.178.928,3.491,3.491,0,0,1-2.653.347c-.736-.206-1.069-.768.642-1.478a12.547,12.547,0,0,0,4.594-3.587c.838-1.186,1.27-2.016,2.843-2.092.518-.025,2.913-11.08,3.2-12.71s6.847.58,6.5,1.881-4.495,12.269-3.959,12.966.692,1.4.606,3.752c-.044,1.178-.282,3.426-.5,5.3,0,0-.4,3.53-.7,4.865S1188.515,734.763,1187.589,734.616Z" transform="translate(-1175.064 -703.418)" fill="#f79983"/>
      </g>
      <g id="Group_101" data-name="Group 101" transform="translate(101.242 57.607)">
        <path id="Path_178" data-name="Path 178" d="M1178.589,671.1c.955-3.945,6.839-4.1,9.932-1.468,3.441,2.922,7.434,9.27,8.569,23.053l.325,8.277s-3.069,25.917-8.695,34.763l-5.7-1.776s4.137-26.578,2.827-35.7C1185.847,698.25,1176.123,681.3,1178.589,671.1Z" transform="translate(-1178.188 -667.865)" fill="#ac3083"/>
      </g>
      <g id="Group_102" data-name="Group 102" transform="translate(73.618 9.633)">
        <path id="Path_179" data-name="Path 179" d="M1192.309,666.6a15.281,15.281,0,0,0,2.679-12.755,2.973,2.973,0,0,0-1.364-2.041c-1.311-.61-2.89.632-4.257.16-1.574-.545-1.63-2.743-2.586-4.1-1.368-1.947-4.24-1.826-6.428-2.761-3.632-1.549-5.421-6.11-9.2-7.266a7.222,7.222,0,0,0-6.861,1.869,12.016,12.016,0,0,0-3.291,6.549c-.49,2.561-.369,5.388,1.115,7.532,1.633,2.362,4.574,3.457,6.53,5.561,3.727,4.012,3.258,12.933,9.036,15.076C1182.689,676.27,1189.624,670.292,1192.309,666.6Z" transform="translate(-1160.746 -637.573)" fill="#c04e97"/>
        <path id="Path_180" data-name="Path 180" d="M1186.316,664.031a10.645,10.645,0,0,1-21.194,1.888c-.043-.233-.065-.488-.086-.743l-.51-9.463c0-.19-.021-.382-.021-.572a10.659,10.659,0,0,1,21.3-.594l.382,6.937Z" transform="translate(-1158.551 -633.544)" fill="#f79a83"/>
        <path id="Path_181" data-name="Path 181" d="M1187.268,659.813s-9.979,5.347-14.928-8.948S1186.67,648.776,1187.268,659.813Z" transform="translate(-1154.452 -633.603)" fill="#c04e97"/>
        <path id="Path_182" data-name="Path 182" d="M1169.142,657.629v18.357c0,2.776,2.607,5.027,5.825,5.027h0c3.217,0,5.825-2.25,5.825-5.027V657.629" transform="translate(-1155.845 -625.865)" fill="#f79a83"/>
        <path id="Path_183" data-name="Path 183" d="M1164.329,653.767s10.507,3.959,17.868,2.36c0,0-.271-11.053-8.106-12.773S1164.329,653.767,1164.329,653.767Z" transform="translate(-1158.654 -634.296)" fill="#c04e97"/>
        <path id="Path_184" data-name="Path 184" d="M1169.142,664.526s6.389,1.413,11.65-2.36v3.518S1172.957,668.549,1169.142,664.526Z" transform="translate(-1155.845 -623.217)" fill="#ee8a78"/>
        <path id="Path_185" data-name="Path 185" d="M1185.681,660.211A10.088,10.088,0,0,1,1165.6,662a3.963,3.963,0,0,1,3.4-.5,17.627,17.627,0,0,1,2.333,1.246c1.989,1.047,4.341,1.047,6.593,1.026a1.764,1.764,0,0,0,.925-.162,1.8,1.8,0,0,0,.664-1.487,31.166,31.166,0,0,0-.141-7.238,7.241,7.241,0,0,1-.074-2.707c.261-.483,1.18.315,1.543.736.141.181.811.257.852.478.16,1.205-.512,2.8.455,3.563.865.7,2.151.463,3.237.784l.181.06Z" transform="translate(-1157.914 -629.136)" fill="#c04e97"/>
        <path id="Path_186" data-name="Path 186" d="M1175.455,654.8a2.952,2.952,0,1,0,2.789-3.107A2.954,2.954,0,0,0,1175.455,654.8Z" transform="translate(-1152.162 -629.335)" fill="#f79a83"/>
        <path id="Path_187" data-name="Path 187" d="M1179.012,654.3a1.264,1.264,0,1,1-.947-1.516A1.263,1.263,0,0,1,1179.012,654.3Z" transform="translate(-1151.54 -628.713)" fill="#e88270"/>
      </g>
    </g>
    <g id="Group_107" data-name="Group 107" transform="translate(1046.435 508.985)">
      <g id="Group_104" data-name="Group 104" transform="translate(46.083 196.092)">
        <path id="Path_188" data-name="Path 188" d="M996.693,663.089c0,27.819,21.406,106.164,21.406,106.164s21.407-78.345,21.407-106.164S1029.922,632.8,1018.1,632.8,996.693,635.272,996.693,663.089Z" transform="translate(-996.693 -632.8)" fill="#a53380"/>
        <path id="Path_189" data-name="Path 189" d="M1000.429,653.751c0,19.241,15.489,73.432,15.489,73.432s15.491-54.191,15.491-73.432-6.935-20.951-15.491-20.951S1000.429,634.509,1000.429,653.751Z" transform="translate(-994.512 -632.8)" fill="#be5b9f"/>
        <path id="Path_190" data-name="Path 190" d="M1004.106,644.844c0,11.061,4.328,42.215,9.666,42.215s9.667-31.154,9.667-42.215-4.328-12.044-9.667-12.044S1004.106,633.782,1004.106,644.844Z" transform="translate(-992.365 -632.8)" fill="#fee6e1"/>
      </g>
      <g id="Group_106" data-name="Group 106">
        <path id="Path_191" data-name="Path 191" d="M1005.78,606.036a158.859,158.859,0,0,0-30.022,22.041,25.567,25.567,0,0,0-8.056,21.01c1.384,14.992,5.157,31.947,11.04,50.636a.9.9,0,0,0,1.731-.078c5.1-23.729,10.437-45.287,16.75-58l11.026-18.975Z" transform="translate(-967.596 -452.331)" fill="#c04e97"/>
        <path id="Path_192" data-name="Path 192" d="M997.434,609.435c-5.486,9.948-17.842,51.847-13.113,39.081a91.235,91.235,0,0,1,3.757-8.852L999.1,620.689Z" transform="translate(-958.449 -450.347)" opacity="0.06"/>
        <path id="Path_193" data-name="Path 193" d="M996.972,609.435a158.305,158.305,0,0,0-21.213,16.658A25.567,25.567,0,0,0,967.7,647.1c1.384,14.992,5.157,31.948,11.04,50.636C975.3,656.247,996.972,632.235,996.972,609.435Z" transform="translate(-967.596 -450.347)" fill="#fff" opacity="0.09"/>
        <path id="Path_194" data-name="Path 194" d="M989.047,614.614c1.28.608-3.688,7.339-8.254,16.943s-7,18.441-8.28,17.833-2.89-11.435,1.677-21.039S987.768,614.006,989.047,614.614Z" transform="translate(-965.516 -447.354)" fill="#fff" opacity="0.23"/>
        <path id="Path_195" data-name="Path 195" d="M1029.623,606.036a158.84,158.84,0,0,1,30.021,22.041,25.567,25.567,0,0,1,8.057,21.01c-1.384,14.992-5.157,31.947-11.04,50.636a.9.9,0,0,1-1.731-.078c-5.1-23.729-10.437-45.287-16.75-58l-11.026-18.975Z" transform="translate(-932.828 -452.331)" fill="#c04e97"/>
        <path id="Path_196" data-name="Path 196" d="M1028.823,609.435c5.486,9.948,17.842,51.847,13.114,39.081a91.294,91.294,0,0,0-3.757-8.852l-11.026-18.975Z" transform="translate(-932.828 -450.347)" opacity="0.06"/>
        <path id="Path_197" data-name="Path 197" d="M1034.275,609.435a158.293,158.293,0,0,1,21.213,16.658,25.567,25.567,0,0,1,8.057,21.01c-1.385,14.992-5.157,31.948-11.04,50.636C1055.944,656.247,1034.275,632.235,1034.275,609.435Z" transform="translate(-928.671 -450.347)" fill="#fff" opacity="0.09"/>
        <path id="Path_198" data-name="Path 198" d="M1043.685,618.492c-.777.369,1.891,4.778,4.667,10.619s4.614,10.9,5.391,10.535,1.552-6.69-1.226-12.531S1044.464,618.121,1043.685,618.492Z" transform="translate(-923.258 -445.077)" fill="#fff" opacity="0.23"/>
        <path id="Path_199" data-name="Path 199" d="M1032.382,645.036a235.7,235.7,0,0,0-29.155.03,1.977,1.977,0,0,1-.732-.089c-2.814-.925-5.242-2.639-5.242-5.711V625.823a5.732,5.732,0,0,1,5.6-5.823h30.333a5.732,5.732,0,0,1,5.6,5.823v13.443c0,2.884-2.141,4.574-4.729,5.532A4.074,4.074,0,0,1,1032.382,645.036Z" transform="translate(-950.283 -444.18)" fill="#ca5fa0"/>
        <path id="Path_200" data-name="Path 200" d="M1021.334,620.119l-1.124-.119a94.4,94.4,0,0,1-.725,25.038,4.058,4.058,0,0,0,1.6-.239c2.588-.958,4.729-2.648,4.729-5.532V625.823C1025.81,622.621,1024.414,620.119,1021.334,620.119Z" transform="translate(-937.306 -444.18)" opacity="0.18"/>
        <path id="Path_201" data-name="Path 201" d="M1037.954,641.519c-11.726.3-23.893.249-36.536,0a1.937,1.937,0,0,1-.532-.082c-3.529-1.077-6.614-3.106-6.614-6.8V618.772a6.892,6.892,0,0,1,6.873-6.872h37.228a6.892,6.892,0,0,1,6.874,6.872v15.865c0,3.64-3,5.668-6.47,6.751A2.951,2.951,0,0,1,1037.954,641.519Z" transform="translate(-952.023 -448.908)" fill="#943073"/>
        <path id="Path_202" data-name="Path 202" d="M1022.915,611.892l-1.01-.006a159.758,159.758,0,0,1-.99,29.645c.463-.008.93-.013,1.392-.022a2.971,2.971,0,0,0,.825-.127c3.471-1.061,6.489-3.071,6.511-6.71l.1-15.863A6.894,6.894,0,0,0,1022.915,611.892Z" transform="translate(-936.47 -448.916)" opacity="0.18"/>
        <path id="Path_203" data-name="Path 203" d="M1055.929,685.657c-.841,3.836-3.578,6.938-7.485,7.372-8.2.922-16.683.483-24.7.515-8.012-.032-15.749.407-23.946-.515-3.905-.434-6.644-3.536-7.485-7.372-22.467-102.26,25.7-175.454,31.806-176.672C1030.225,510.2,1078.4,583.4,1055.929,685.657Z" transform="translate(-956.626 -508.985)" fill="#ebebeb"/>
        <path id="Path_204" data-name="Path 204" d="M1006.747,626.281l4.922-18.216c.125-.93,1.015-.93,1.142,0l4.921,18.216c-.854,25.267-2.705,53.787-5.111,84.11a.383.383,0,0,1-.767,0C1009.4,679.72,1007.5,650.994,1006.747,626.281Z" transform="translate(-944.741 -451.554)" fill="#c04e97"/>
        <path id="Path_205" data-name="Path 205" d="M994.48,554.353c7.673-.885,18.323-.936,25.733-.936,6.929,0,16.74.111,24.089.887-9.772-28.13-22.022-44.744-24.9-45.319C1016.518,509.56,1004.256,526.194,994.48,554.353Z" transform="translate(-951.902 -508.985)" fill="#c04e97"/>
        <path id="Path_206" data-name="Path 206" d="M1010.676,538.884l-7.92.364c-15.561,35.525-11.422,86.4-6.516,130.126.654,2.221,1.937,4.164,4.251,4.164h11.6C1005.956,620.721,1002.895,589.5,1010.676,538.884Z" transform="translate(-953.469 -491.531)" fill="#fff"/>
        <path id="Path_207" data-name="Path 207" d="M1007.319,542.22c.9-5.564,1.862-11,3.033-17.1a85.125,85.125,0,0,0-10.458,17.467Z" transform="translate(-948.741 -499.565)" fill="#fff" opacity="0.38"/>
        <g id="Group_105" data-name="Group 105" transform="translate(42.165 53.127)">
          <path id="Path_208" data-name="Path 208" d="M1018.108,579.8a21.009,21.009,0,0,1-20.981-19.973c-.016.344-.025.689-.025,1.036a21.008,21.008,0,1,0,42.015,0q0-.52-.027-1.036A21.008,21.008,0,0,1,1018.108,579.8Z" transform="translate(-992.537 -532.431)" opacity="0.25"/>
          <circle id="Ellipse_20" data-name="Ellipse 20" cx="21.035" cy="21.035" r="21.035" transform="translate(0 40.771) rotate(-75.728)" fill="#c04e97"/>
          <circle id="Ellipse_21" data-name="Ellipse 21" cx="17.313" cy="17.313" r="17.313" transform="translate(4.758 38.466) rotate(-76.781)" fill="#c04e97"/>
          <circle id="Ellipse_22" data-name="Ellipse 22" cx="14.463" cy="14.463" r="14.463" transform="translate(11.108 11.108)" fill="#ea9bc3"/>
          <path id="Path_209" data-name="Path 209" d="M1015.7,553.021a14.461,14.461,0,0,1,14.355,12.725,14.668,14.668,0,0,0,.108-1.739,14.463,14.463,0,0,0-28.926,0,14.63,14.63,0,0,0,.108,1.739A14.464,14.464,0,0,1,1015.7,553.021Z" transform="translate(-990.125 -538.436)" fill="#e470a9"/>
          <path id="Path_210" data-name="Path 210" d="M1020.707,561.286c1.216,1.864.163,4.705-2.352,6.346s-5.54,1.46-6.756-.4-.163-4.705,2.352-6.346S1019.49,559.422,1020.707,561.286Z" transform="translate(-984.369 -532.471)" fill="#e470a9"/>
          <path id="Path_211" data-name="Path 211" d="M1013.044,553.391c.19,1.05-.752,1.478-2.111,1.725s-2.621.219-2.813-.831a2.586,2.586,0,0,1,4.924-.893Z" transform="translate(-986.119 -537.07)" fill="#fff" opacity="0.56"/>
          <path id="Path_212" data-name="Path 212" d="M1008.825,553.983c.871.757-.075,2.4-1.592,4.146s-3.032,2.939-3.9,2.184-.627-3.174.889-4.921S1007.954,553.227,1008.825,553.983Z" transform="translate(-989.192 -536.055)" fill="#fff" opacity="0.56"/>
          <path id="Path_213" data-name="Path 213" d="M1011.194,547c.025.307-5.019,2.414-8.052,6.072-3.777,4.558-4.582,9.349-4.851,9.13s.288-5.575,3.983-9.853C1006.272,547.725,1011.163,546.63,1011.194,547Z" transform="translate(-991.876 -539.958)" fill="#fff" opacity="0.52"/>
          <path id="Path_214" data-name="Path 214" d="M1013.641,578.073c.074-.29,6.769-2.9,10.21-7.763a26.134,26.134,0,0,0,4.317-12.575,21.11,21.11,0,0,1-3.589,13.181C1020.1,577.137,1013.55,578.421,1013.641,578.073Z" transform="translate(-982.882 -533.655)" fill="#fff" opacity="0.52"/>
        </g>
        <path id="Path_215" data-name="Path 215" d="M1019.088,509.588c-2.55.508-12.447,13.587-21.466,36.1,37.91-55.878,59.2,66.465,41.477,148.307,0,0,2.925-.211,4.309-.367,3.907-.434,6.644-3.538,7.485-7.372C1073.362,584,1025.189,510.806,1019.088,509.588Z" transform="translate(-950.068 -508.633)" fill="#040505" opacity="0.08"/>
        <path id="Path_216" data-name="Path 216" d="M1010.766,608.061c-.059-.431-.282-.653-.516-.686V710.759a.38.38,0,0,0,.326-.372c2.405-30.323,4.257-58.843,5.111-84.11Z" transform="translate(-942.696 -451.55)" fill="#040505" opacity="0.06"/>
        <path id="Rectangle_51" data-name="Rectangle 51" d="M0,0H10.148a0,0,0,0,1,0,0V5.244a0,0,0,0,1,0,0H2.571A2.571,2.571,0,0,1,0,2.673V0A0,0,0,0,1,0,0Z" transform="translate(48.476 186.122)" fill="#fff" opacity="0.17"/>
        <path id="Path_217" data-name="Path 217" d="M1008.286,636.866l-5.906.024a2.625,2.625,0,0,1-2.625-2.624v-2.718l8.53-.024Z" transform="translate(-948.822 -437.453)" fill="#fff" opacity="0.17"/>
        <path id="Path_218" data-name="Path 218" d="M1010.6,607.841l-1.26,18.014,1.386,47.956Z" transform="translate(-943.227 -451.277)" fill="#fff" opacity="0.23"/>
      </g>
    </g>
  </g>
</svg>
