<svg xmlns="http://www.w3.org/2000/svg" width="285.752" height="704" viewBox="0 0 285.752 704">
  <g id="roke" transform="translate(-902.831 -264.555)">
    <g id="Group_109" data-name="Group 109" transform="translate(1000.388 679.68)">
      <path id="Path_219" data-name="Path 219" d="M931.928,452.495c0,58.892,45.32,224.749,45.32,224.749s45.317-165.857,45.317-224.749-20.291-64.126-45.317-64.126S931.928,393.606,931.928,452.495Z" transform="translate(-931.928 -388.369)" fill="#a53380"/>
      <path id="Path_220" data-name="Path 220" d="M935.664,432.723c0,40.737,32.794,155.46,32.794,155.46s32.79-114.723,32.79-155.46-14.682-44.354-32.79-44.354S935.664,391.99,935.664,432.723Z" transform="translate(-923.138 -388.369)" fill="#be5b9f"/>
      <path id="Path_221" data-name="Path 221" d="M939.341,413.867c0,23.419,9.163,89.373,20.466,89.373s20.462-65.953,20.462-89.373-9.163-25.5-20.462-25.5S939.341,390.451,939.341,413.867Z" transform="translate(-914.486 -388.369)" fill="#fee6e1"/>
    </g>
    <g id="Group_111" data-name="Group 111" transform="translate(902.831 264.555)">
      <path id="Path_222" data-name="Path 222" d="M983.668,361.606a336.408,336.408,0,0,0-63.556,46.658,54.133,54.133,0,0,0-17.056,44.478c2.93,31.741,10.917,67.633,23.373,107.2a1.9,1.9,0,0,0,3.664-.161c10.8-50.235,22.1-95.877,35.46-122.783l23.342-40.17Z" transform="translate(-902.831 -36.212)" fill="#c04e97"/>
      <path id="Path_223" data-name="Path 223" d="M948.5,365c-11.614,21.059-37.773,109.761-27.761,82.731A193.779,193.779,0,0,1,928.689,429l23.342-40.17Z" transform="translate(-865.967 -28.215)" opacity="0.06"/>
      <path id="Path_224" data-name="Path 224" d="M965.02,365a335.385,335.385,0,0,0-44.908,35.262,54.133,54.133,0,0,0-17.056,44.478c2.93,31.741,10.917,67.633,23.373,107.2C919.146,464.107,965.02,413.272,965.02,365Z" transform="translate(-902.831 -28.215)" fill="#fff" opacity="0.09"/>
      <path id="Path_225" data-name="Path 225" d="M944.263,370.241c2.709,1.291-7.809,15.54-17.475,35.868s-14.823,39.043-17.529,37.756-6.119-24.207,3.551-44.539S941.557,368.954,944.263,370.241Z" transform="translate(-894.449 -16.154)" fill="#fff" opacity="0.23"/>
      <path id="Path_226" data-name="Path 226" d="M967.616,361.606a336.414,336.414,0,0,1,63.556,46.658,54.134,54.134,0,0,1,17.056,44.478c-2.93,31.741-10.917,67.633-23.373,107.2a1.9,1.9,0,0,1-3.665-.161c-10.793-50.235-22.1-95.877-35.459-122.783l-23.342-40.17Z" transform="translate(-762.701 -36.212)" fill="#c04e97"/>
      <path id="Path_227" data-name="Path 227" d="M965.923,365c11.614,21.059,37.773,109.761,27.761,82.731A193.961,193.961,0,0,0,985.731,429l-23.342-40.17Z" transform="translate(-762.701 -28.215)" opacity="0.06"/>
      <path id="Path_228" data-name="Path 228" d="M969.51,365a335.37,335.37,0,0,1,44.907,35.262,54.134,54.134,0,0,1,17.056,44.478c-2.927,31.741-10.917,67.633-23.369,107.2C1015.386,464.107,969.51,413.272,969.51,365Z" transform="translate(-745.947 -28.215)" fill="#fff" opacity="0.09"/>
      <path id="Path_229" data-name="Path 229" d="M979.073,374.095c-1.646.781,4,10.112,9.881,22.481s9.766,23.084,11.413,22.3,3.286-14.159-2.6-26.524S980.723,373.31,979.073,374.095Z" transform="translate(-724.128 -6.975)" fill="#fff" opacity="0.23"/>
      <path id="Path_230" data-name="Path 230" d="M1006.857,428.571a498.263,498.263,0,0,0-61.719.064,4.181,4.181,0,0,1-1.552-.191c-5.958-1.955-11.1-5.583-11.1-12.09V387.9a12.133,12.133,0,0,1,11.856-12.328h64.217a12.132,12.132,0,0,1,11.855,12.328v28.455c0,6.109-4.533,9.686-10.011,11.715A8.617,8.617,0,0,1,1006.857,428.571Z" transform="translate(-833.052 -3.358)" fill="#ca5fa0"/>
      <path id="Path_231" data-name="Path 231" d="M958.635,375.821l-2.38-.251a199.676,199.676,0,0,1-1.536,53,8.644,8.644,0,0,0,3.38-.506c5.479-2.029,10.012-5.606,10.012-11.715V387.9C968.11,381.116,965.156,375.821,958.635,375.821Z" transform="translate(-780.747 -3.358)" opacity="0.18"/>
      <path id="Path_232" data-name="Path 232" d="M1021.979,430.177c-24.821.634-50.577.526-77.346-.01a4.258,4.258,0,0,1-1.126-.178c-7.47-2.28-14-6.575-14-14.384V382.02a14.591,14.591,0,0,1,14.548-14.551h78.811a14.594,14.594,0,0,1,14.551,14.551v33.585c0,7.7-6.357,12-13.693,14.293A6.422,6.422,0,0,1,1021.979,430.177Z" transform="translate(-840.064 -22.418)" fill="#943073"/>
      <path id="Path_233" data-name="Path 233" d="M960.384,367.468l-2.139-.013c1.539,22.276.171,43.2-2.1,62.761.979-.017,1.971-.027,2.947-.047a6.409,6.409,0,0,0,1.747-.268c7.353-2.246,13.737-6.5,13.783-14.206l.215-33.585A14.6,14.6,0,0,0,960.384,367.468Z" transform="translate(-777.38 -22.451)" opacity="0.18"/>
      <path id="Path_234" data-name="Path 234" d="M1068.843,638.571c-1.78,8.117-7.574,14.689-15.842,15.607-17.354,1.951-35.322,1.023-52.284,1.09-16.962-.067-33.34.862-50.694-1.09-8.268-.919-14.065-7.49-15.845-15.607-47.563-216.484,54.416-371.438,67.334-374.016C1014.43,267.133,1116.409,422.087,1068.843,638.571Z" transform="translate(-858.617 -264.555)" fill="#ebebeb"/>
      <path id="Path_235" data-name="Path 235" d="M941.983,402.98,952.4,364.416c.265-1.971,2.149-1.971,2.417,0l10.417,38.564c-1.807,53.487-5.727,113.865-10.816,178.061a.813.813,0,0,1-1.626,0C947.6,516.11,943.576,455.3,941.983,402.98Z" transform="translate(-810.713 -33.081)" fill="#c04e97"/>
      <path id="Path_236" data-name="Path 236" d="M929.716,360.6c16.241-1.871,38.785-1.978,54.473-1.978,14.669,0,35.439.235,51,1.874-20.69-59.549-46.624-94.72-52.72-95.937C976.367,265.772,950.41,300.983,929.716,360.6Z" transform="translate(-839.575 -264.555)" fill="#c04e97"/>
      <path id="Path_237" data-name="Path 237" d="M967,294.453l-16.768.771c-32.941,75.207-24.18,182.919-13.793,275.48,1.385,4.7,4.1,8.815,9,8.815H970C957.008,467.7,950.527,401.619,967,294.453Z" transform="translate(-845.891 -194.211)" fill="#fff"/>
      <path id="Path_238" data-name="Path 238" d="M950.845,316.889c1.9-11.778,3.943-23.282,6.421-36.2A180.076,180.076,0,0,0,935.13,317.67Z" transform="translate(-826.836 -226.588)" fill="#fff" opacity="0.38"/>
      <g id="Group_110" data-name="Group 110" transform="translate(89.264 112.469)">
        <path id="Path_239" data-name="Path 239" d="M976.807,357.68A44.473,44.473,0,0,1,932.39,315.4c-.034.728-.054,1.455-.054,2.193a44.473,44.473,0,0,0,88.947,0c0-.738-.02-1.465-.057-2.193A44.47,44.47,0,0,1,976.807,357.68Z" transform="translate(-922.674 -257.393)" opacity="0.25"/>
        <circle id="Ellipse_23" data-name="Ellipse 23" cx="44.531" cy="44.531" r="44.531" transform="translate(0 86.313) rotate(-75.728)" fill="#c04e97"/>
        <circle id="Ellipse_24" data-name="Ellipse 24" cx="36.652" cy="36.652" r="36.652" transform="translate(10.073 81.433) rotate(-76.781)" fill="#c04e97"/>
        <circle id="Ellipse_25" data-name="Ellipse 25" cx="30.618" cy="30.618" r="30.618" transform="translate(23.516 23.516)" fill="#ea9bc3"/>
        <path id="Path_240" data-name="Path 240" d="M967.086,312.473a30.615,30.615,0,0,1,30.39,26.936,30.569,30.569,0,0,0-30.39-34.3,30.618,30.618,0,0,0-30.618,30.618,31,31,0,0,0,.228,3.678A30.62,30.62,0,0,1,967.086,312.473Z" transform="translate(-912.953 -281.596)" fill="#e470a9"/>
        <path id="Path_241" data-name="Path 241" d="M966.68,318.56c2.575,3.946.345,9.961-4.979,13.435s-11.728,3.091-14.3-.855-.345-9.961,4.979-13.435S964.105,314.614,966.68,318.56Z" transform="translate(-889.754 -257.558)" fill="#e470a9"/>
        <path id="Path_242" data-name="Path 242" d="M953.8,310.645c.406,2.223-1.593,3.128-4.469,3.651s-5.549.463-5.951-1.764,1.6-4.449,4.479-4.969S953.4,308.419,953.8,310.645Z" transform="translate(-896.804 -276.093)" fill="#fff" opacity="0.56"/>
        <path id="Path_243" data-name="Path 243" d="M950.755,309.955c1.844,1.6-.158,5.076-3.366,8.778s-6.417,6.223-8.261,4.624-1.328-6.719,1.881-10.421S948.911,308.356,950.755,309.955Z" transform="translate(-909.192 -272)" fill="#fff" opacity="0.56"/>
        <path id="Path_244" data-name="Path 244" d="M960.907,302.646c.054.654-10.625,5.113-17.045,12.858-8,9.65-9.7,19.788-10.27,19.329s.61-11.8,8.432-20.858C950.49,304.178,960.843,301.861,960.907,302.646Z" transform="translate(-920.01 -287.735)" fill="#fff" opacity="0.52"/>
        <path id="Path_245" data-name="Path 245" d="M948.877,356.359c.157-.61,14.33-6.136,21.616-16.435,9.073-12.825,8.848-26.826,9.14-26.618s1.163,15.728-7.6,27.906C962.56,354.377,948.686,357.1,948.877,356.359Z" transform="translate(-883.76 -262.328)" fill="#fff" opacity="0.52"/>
      </g>
      <path id="Path_246" data-name="Path 246" d="M978.3,265.158c-5.4,1.076-26.35,28.764-45.441,76.434,80.253-118.294,125.328,140.707,87.8,313.967,0,0,6.193-.446,9.126-.778,8.268-.919,14.062-7.49,15.842-15.607C1093.2,422.69,991.217,267.736,978.3,265.158Z" transform="translate(-832.182 -263.136)" fill="#040505" opacity="0.08"/>
      <path id="Path_247" data-name="Path 247" d="M946.578,364.4c-.124-.912-.6-1.385-1.093-1.452V581.81a.809.809,0,0,0,.694-.788c5.09-64.2,9.009-124.574,10.816-178.061Z" transform="translate(-802.473 -33.062)" fill="#040505" opacity="0.06"/>
      <path id="Rectangle_52" data-name="Rectangle 52" d="M0,0H21.484a0,0,0,0,1,0,0V11.1a0,0,0,0,1,0,0H2.571A2.571,2.571,0,0,1,0,8.53V0A0,0,0,0,1,0,0Z" transform="translate(102.624 394.019)" fill="#fff" opacity="0.17"/>
      <path id="Path_248" data-name="Path 248" d="M953.047,398.4l-12.5.047a5.55,5.55,0,0,1-5.552-5.552v-5.753l18.055-.05Z" transform="translate(-827.161 23.756)" fill="#fff" opacity="0.17"/>
      <path id="Path_249" data-name="Path 249" d="M947.242,363.411l-2.666,38.135,2.934,101.523Z" transform="translate(-804.614 -31.965)" fill="#fff" opacity="0.23"/>
    </g>
  </g>
</svg>
