<svg xmlns="http://www.w3.org/2000/svg" width="96" height="96" viewBox="0 0 96 96">
  <g id="time" transform="translate(-376 -2049)">
    <rect id="Rectangle_8" data-name="Rectangle 8" width="96" height="96" rx="8" transform="translate(376 2049)" fill="#fff"/>
    <g id="Group_47" data-name="Group 47" transform="translate(376 2050.265)">
      <g id="Group_46" data-name="Group 46">
        <path id="Path_11" data-name="Path 11" d="M1192.995,360.186h-3.52a3.589,3.589,0,0,0,0,7.176h3.52a3.589,3.589,0,0,0,0-7.176Zm-26.988,23.919a3.556,3.556,0,0,0-3.52,3.588v3.588a3.521,3.521,0,1,0,7.041,0v-3.588A3.556,3.556,0,0,0,1166.007,384.106Zm-23.467-23.919h-3.52a3.589,3.589,0,0,0,0,7.176h3.52a3.589,3.589,0,0,0,0-7.176Zm23.467-27.508a3.556,3.556,0,0,0-3.52,3.588v3.588a3.521,3.521,0,1,0,7.041,0v-3.588A3.556,3.556,0,0,0,1166.007,332.679Z" transform="translate(-1118.007 -317.199)" fill="#c04e97"/>
        <path id="Path_12" data-name="Path 12" d="M1169.871,319.052c-26.509,0-48,20.852-48,46.575s21.491,46.576,48,46.576,48-20.852,48-46.576S1196.381,319.052,1169.871,319.052Zm0,81.209c-19.681,0-35.692-15.537-35.692-34.634s16.012-34.633,35.692-34.633,35.692,15.536,35.692,34.633S1189.552,400.261,1169.871,400.261Zm16.1-54.551-14.543,14.112a7.6,7.6,0,0,0-1.556-.165,7.5,7.5,0,0,0-2.222.367l-11.267-10.935a3.77,3.77,0,0,0-5.221,0,3.506,3.506,0,0,0,0,5.066l11.5,11.158a6.965,6.965,0,0,0-.171,1.511,7.388,7.388,0,0,0,14.77,0,6.894,6.894,0,0,0-.378-2.158l14.313-13.888a3.506,3.506,0,0,0,0-5.066A3.772,3.772,0,0,0,1185.97,345.71Z" transform="translate(-1121.871 -319.052)" fill="#c04e97"/>
      </g>
    </g>
  </g>
</svg>
